<svg height="512" viewBox="0 0 64 64" width="512" xmlns="http://www.w3.org/2000/svg" xmlns:xlink="http://www.w3.org/1999/xlink"><linearGradient id="New_Gradient_Swatch_1" gradientUnits="userSpaceOnUse" x1="32" x2="32" y1="-4.231" y2="70.73"><stop offset="0" stop-color="#fff33b"/><stop offset=".014" stop-color="#fee72e"/><stop offset=".042" stop-color="#fed51b"/><stop offset=".07" stop-color="#fdca10"/><stop offset=".1" stop-color="#fdc70c"/><stop offset=".4" stop-color="#f3903f"/><stop offset=".8" stop-color="#ed683c"/><stop offset="1" stop-color="#e93e3a"/></linearGradient><g id="bookshelf-books-bookshelves-shelf-book" fill="url(#New_Gradient_Swatch_1)"><path d="m59 2h-54a3.009 3.009 0 0 0 -3 3v54a3.009 3.009 0 0 0 3 3h54a3.009 3.009 0 0 0 3-3v-54a3.009 3.009 0 0 0 -3-3zm1 57a1 1 0 0 1 -1 1h-54a1 1 0 0 1 -1-1v-54a1 1 0 0 1 1-1h54a1 1 0 0 1 1 1z"/><path d="m57 6h-50a1 1 0 0 0 -1 1v50a1 1 0 0 0 1 1h50a1 1 0 0 0 1-1v-50a1 1 0 0 0 -1-1zm-49 9h4v2h-4zm0 4h4v8h-4zm0 10h4v2h-4zm4 27h-4v-2h4zm0-4h-4v-8h4zm0-10h-4v-2h4zm6 14h-4v-2h4zm0-4h-4v-8h4zm0-10h-4v-2h4zm6 14h-4v-2h4zm0-4h-4v-8h4zm0-10h-4v-2h4zm6 14h-4v-2h4zm0-4h-4v-8h4zm0-10h-4v-2h4zm2 14v-12.59l7.27 12.59zm1.37-14.22 3.46-2 1 1.73-3.46 2zm2 3.46 3.46-2 4 6.93-3.46 2zm5 8.66 3.46-2 1 1.73-3.46 2zm15.63 2.1h-11.27l1.97-1.13a1.007 1.007 0 0 0 .36-1.37l-9-15.59a1 1 0 0 0 -1.36-.37l-4.7 2.72v-1.26a1 1 0 0 0 -1-1h-23v-5h48zm-38-37v8h-4v-8zm-4-2v-2h4v2zm4 12v2h-4v-2zm6-10v8h-4v-8zm-4-2v-2h4v2zm4 12v2h-4v-2zm6-10v8h-4v-8zm-4-2v-2h4v2zm4 12v2h-4v-2zm13-4h7v2h-7a1 1 0 0 1 0-2zm-4-2a1 1 0 0 1 0-2h7v2zm7 6v2h-7a1 1 0 0 1 0-2zm10 2h-8v-2h3a1 1 0 0 0 1-1v-4a1 1 0 0 0 -1-1h-3v-3a1 1 0 0 0 -1-1h-8a3 3 0 0 0 0 6h1.18a2.868 2.868 0 0 0 0 2h-1.18a2.98 2.98 0 0 0 -2.82 4h-4.18v-17a1 1 0 0 0 -1-1h-23v-5h48z"/></g></svg>