<svg id="Layer_1" enable-background="new 0 0 128 128" height="512" viewBox="0 0 128 128" width="512" xmlns="http://www.w3.org/2000/svg" xmlns:xlink="http://www.w3.org/1999/xlink"><linearGradient id="SVGID_1_" gradientTransform="matrix(1 0 0 -1 0 127.89)" gradientUnits="userSpaceOnUse" x1="112.052" x2="15.946" y1="11.717" y2="107.824"><stop offset="0" stop-color="#ff6100"/><stop offset="1" stop-color="#fcca03"/></linearGradient><path d="m57.1 58.2c-.3.9-1.2 1.5-2.2 1.2-10-2.8-20.6-2.8-30.6 0-.9.3-1.9-.3-2.2-1.2s.3-1.9 1.2-2.1c10.6-3 21.9-3 32.5 0 1.1.2 1.6 1.2 1.3 2.1zm-1.2-14.1c-10.6-3-21.9-3-32.5 0-.9.3-1.5 1.2-1.2 2.2.3.9 1.2 1.4 2.1 1.2 10-2.8 20.6-2.8 30.6 0 .9.3 1.9-.3 2.2-1.2.3-1-.3-1.9-1.2-2.2zm0-12c-10.6-3-21.9-3-32.5 0-.9.3-1.5 1.2-1.2 2.2.3.9 1.2 1.4 2.1 1.2 10-2.8 20.6-2.8 30.6 0 .9.3 1.9-.3 2.2-1.2.3-1-.3-1.9-1.2-2.2zm0 35.9c-10.6-3-21.9-3-32.5 0-.9.3-1.5 1.2-1.2 2.2.3.9 1.2 1.4 2.1 1.2 10-2.8 20.6-2.8 30.6 0 .9.3 1.9-.3 2.2-1.2s-.3-1.9-1.2-2.2zm0 12c-10.6-3-21.9-3-32.5 0-.9.3-1.5 1.2-1.2 2.2.3.9 1.2 1.4 2.1 1.2 10-2.8 20.6-2.8 30.6 0 .9.3 1.9-.3 2.2-1.2.3-1-.3-1.9-1.2-2.2zm48.7-23.9c-10.6-3-21.9-3-32.5 0-.9.3-1.5 1.2-1.2 2.2.3.9 1.2 1.4 2.1 1.2 10-2.8 20.6-2.8 30.6 0 .9.3 1.9-.3 2.2-1.2.3-1-.3-2-1.2-2.2zm0-12c-10.6-3-21.9-3-32.5 0-.9.3-1.5 1.2-1.2 2.2.3.9 1.2 1.4 2.1 1.2 10-2.8 20.6-2.8 30.6 0 .9.3 1.9-.3 2.2-1.2.3-1-.3-1.9-1.2-2.2zm0-12c-10.6-3-21.9-3-32.5 0-.9.3-1.5 1.2-1.2 2.2.3.9 1.2 1.4 2.1 1.2 10-2.8 20.6-2.8 30.6 0 .9.3 1.9-.3 2.2-1.2.3-1-.3-1.9-1.2-2.2zm0 35.9c-10.6-3-21.9-3-32.5 0-.9.3-1.5 1.2-1.2 2.2.3.9 1.2 1.4 2.1 1.2 10-2.8 20.6-2.8 30.6 0 .9.3 1.9-.3 2.2-1.2s-.3-1.9-1.2-2.2zm0 12c-10.6-3-21.9-3-32.5 0-.9.3-1.5 1.2-1.2 2.2.3.9 1.2 1.4 2.1 1.2 10-2.8 20.6-2.8 30.6 0 .9.3 1.9-.3 2.2-1.2.3-1-.3-1.9-1.2-2.2zm18.8-47.8v71.9c0 1-.8 1.7-1.7 1.8h-10.7c-1 0-1.8-.8-1.8-1.8s.8-1.8 1.8-1.8h9v-68.4h-5.5v63.1c0 1.4-1.5 2.2-2.6 1.5-.1-.1-9.3-5.3-23.5-5.3s-23.4 5.3-23.5 5.3c-.6.3-1.3.3-1.8 0-.1-.1-9.3-5.3-23.5-5.3s-23.4 5.3-23.5 5.3c-1.2.7-2.6-.2-2.6-1.5v-63.1h-5.4v68.4h48.8c1 0 1.7.8 1.8 1.8 0 1.4 1.2 2.6 2.6 2.6h5.6c1.4 0 2.6-1.2 2.6-2.6 0-1 .8-1.7 1.8-1.8h16.4c1 0 1.8.8 1.8 1.8s-.8 1.8-1.8 1.8h-15.1c-.8 2.6-3.1 4.3-5.8 4.3h-5.6c-2.7 0-5-1.8-5.8-4.3h-49.1c-1 0-1.7-.8-1.8-1.7v-72c0-1 .8-1.8 1.8-1.8h7.3v-5.3c0-.6.3-1.2.9-1.5.4-.2 9.6-5.5 24-5.8 1 0 1.8.7 1.8 1.7 0 1-.7 1.8-1.7 1.8-7.4.1-14.7 1.7-21.5 4.9v68c7.1-3 14.8-4.6 22.6-4.5 7.8-.1 15.4 1.5 22.6 4.5v-68c-4.6-2.2-9.6-3.6-14.6-4.3-1-.1-1.6-1-1.5-2s1-1.6 2-1.5c5.5.7 10.9 2.3 15.9 4.7 7.6-3.6 15.9-5.4 24.3-5.3 15.2 0 24.8 5.6 25.2 5.8.5.3.9.9.9 1.5v5.3h7.3c.9 0 1.6.8 1.6 1.8zm-12.5-6c-7.1-3.3-14.8-4.9-22.6-4.9-7.8-.1-15.5 1.6-22.6 4.9v68c7.1-3 14.8-4.6 22.6-4.5 7.8-.1 15.4 1.5 22.6 4.5zm-9.6 76.1h-4.5c-1 0-1.8.8-1.8 1.8s.8 1.8 1.8 1.8h4.5c1 0 1.8-.8 1.8-1.8s-.8-1.8-1.8-1.8z" fill="url(#SVGID_1_)"/></svg>