<svg id="Capa_1" enable-background="new 0 0 497 497" height="512" viewBox="0 0 497 497" width="512" xmlns="http://www.w3.org/2000/svg"><g><g fill="#bdf0ff"><path d="m409.736 173.503h30v150h-30z"/><path d="m321.62 20.876h30v150h-30z" transform="matrix(.5 -.866 .866 .5 85.279 339.46)"/><path d="m145.384 20.874h30v150h-30z" transform="matrix(-.5 -.866 .866 -.5 157.547 282.707)"/><path d="m57.264 173.497h30v150h-30z" transform="matrix(-1 0 0 -1 144.528 496.995)"/><path d="m145.38 326.124h30v150h-30z" transform="matrix(-.5 .866 -.866 -.5 587.953 462.793)"/><path d="m321.616 326.126h30v150h-30z" transform="matrix(.5 .866 -.866 .5 515.694 -90.955)"/></g><path d="m248.5 0v90c24.853 0 45-20.147 45-45s-20.147-45-45-45z" fill="#9587ff"/><path d="m263.5 45c0-24.853-6.716-45-15-45-24.853 0-45 20.147-45 45s20.147 45 45 45c8.284 0 15-20.147 15-45z" fill="#9ea4ff"/><path d="m72.264 101.75v90c24.853 0 45-20.147 45-45s-20.147-45-45-45z" fill="#9587ff"/><path d="m87.264 146.75c0-24.853-6.716-45-15-45-24.853 0-45 20.147-45 45s20.147 45 45 45c8.284 0 15-20.147 15-45z" fill="#9ea4ff"/><path d="m424.736 101.75v90c24.853 0 45-20.147 45-45s-20.147-45-45-45z" fill="#9587ff"/><path d="m439.736 146.75c0-24.853-6.716-45-15-45-24.853 0-45 20.147-45 45s20.147 45 45 45c8.284 0 15-20.147 15-45z" fill="#9ea4ff"/><path d="m424.736 305.25v90c24.853 0 45-20.147 45-45s-20.147-45-45-45z" fill="#9587ff"/><path d="m439.736 350.25c0-24.853-6.716-45-15-45-24.853 0-45 20.147-45 45s20.147 45 45 45c8.284 0 15-20.147 15-45z" fill="#9ea4ff"/><path d="m72.264 305.25v90c24.853 0 45-20.147 45-45s-20.147-45-45-45z" fill="#9587ff"/><path d="m87.264 350.25c0-24.853-6.716-45-15-45-24.853 0-45 20.147-45 45s20.147 45 45 45c8.284 0 15-20.147 15-45z" fill="#9ea4ff"/><path d="m248.5 407v90c24.853 0 45-20.147 45-45s-20.147-45-45-45z" fill="#9587ff"/><path d="m263.5 452c0-24.853-6.716-45-15-45-24.853 0-45 20.147-45 45s20.147 45 45 45c8.284 0 15-20.147 15-45z" fill="#9ea4ff"/><path d="m138.229 184.833c-.65 1.12-1.005 2.407-1.005 3.747v119.84c0 2.679 1.429 5.155 3.75 6.495l103.78 59.92c1.16.67 2.455 1.005 3.75 1.005l81.28-191.59z" fill="#ff9457"/><path d="m358.78 184.833-110.28-.583 81.284 145.82 26.25-15.155c2.32-1.34 3.75-3.816 3.75-6.495v-119.84c0-1.34-.355-2.627-1.004-3.747z" fill="#ff6145"/><path d="m329.784 201.57-81.28-17.32v191.59c1.295 0 2.59-.335 3.75-1.005l77.53-44.765v-34.64l-15-17.321 15-17.321z" fill="#ff7e4f"/><path d="m329.788 260.789-51.284 29.608v34.642l51.284-29.609z" fill="#fff"/><path d="m356.035 182.085-103.781-59.92c-2.32-1.34-5.179-1.34-7.5 0l-51.89 29.955 15 64.26h96.28l54.635-31.547c-.647-1.121-1.584-2.078-2.744-2.748z" fill="#ff9457"/><path d="m192.864 152.12-51.891 29.965c-1.16.67-2.097 1.627-2.745 2.748l110.276 63.667 55.64-32.12z" fill="#ffae6b"/></g></svg>