<svg id="Capa_1" enable-background="new 0 0 512 512" height="512" viewBox="0 0 512 512" width="512" xmlns="http://www.w3.org/2000/svg"><g><g><g><path d="m296 32v34.576c0 8.077-6.207 15.027-14.275 15.407-8.614.406-15.725-6.458-15.725-14.983v-35h-44v34.576c0 8.077-6.207 15.027-14.275 15.407-8.614.406-15.725-6.458-15.725-14.983v-35h-44v34.576c0 8.077-6.207 15.027-14.275 15.407-8.614.406-15.725-6.458-15.725-14.983v-35h-44v34.576c0 8.077-6.207 15.027-14.275 15.407-8.614.406-15.725-6.458-15.725-14.983v-35c-24.301 0-44 19.699-44 44v36h340v-36c0-24.301-19.699-44-44-44z"/><path d="m74 15c0-8.284-6.716-15-15-15s-15 6.716-15 15v17h30z"/><path d="m148 15c0-8.284-6.716-15-15-15s-15 6.716-15 15v17h30z"/><path d="m222 15c0-8.284-6.716-15-15-15s-15 6.716-15 15v17h30z"/><path d="m296 15c0-8.284-6.716-15-15-15s-15 6.716-15 15v17h30z"/></g><path d="m0 142v325c0 24.813 20.187 45 45 45h250c24.813 0 45-20.187 45-45v-325zm230 320h-155c-8.284 0-15-6.716-15-15s6.716-15 15-15h155c8.284 0 15 6.716 15 15s-6.716 15-15 15zm35-60h-190c-8.284 0-15-6.716-15-15s6.716-15 15-15h190c8.284 0 15 6.716 15 15s-6.716 15-15 15zm0-60h-190c-8.284 0-15-6.716-15-15s6.716-15 15-15h190c8.284 0 15 6.716 15 15s-6.716 15-15 15zm0-60h-190c-8.284 0-15-6.716-15-15s6.716-15 15-15h190c8.284 0 15 6.716 15 15s-6.716 15-15 15zm0-60h-190c-8.284 0-15-6.716-15-15s6.716-15 15-15h190c8.284 0 15 6.716 15 15s-6.716 15-15 15z"/></g><g><path d="m497 112c-8.284 0-15 6.716-15 15v5h-95v250h70v-110h25v35c0 8.284 6.716 15 15 15s15-6.716 15-15v-180c0-8.284-6.716-15-15-15zm-15 130h-25v-80h25z"/><path d="m387.018 412c.192 24.625 7.07 48.495 19.982 69.387v15.613c0 8.284 6.716 15 15 15s15-6.716 15-15v-15.613c12.911-20.893 19.79-44.762 19.982-69.387z"/><path d="m457 102v-25c0-19.33-15.67-35-35-35-19.33 0-35 15.67-35 35v25z"/></g></g></svg>