<svg id="bold" enable-background="new 0 0 32 32" height="512" viewBox="0 0 32 32" width="512" xmlns="http://www.w3.org/2000/svg"><path d="m26 32h-20c-3.314 0-6-2.686-6-6v-20c0-3.314 2.686-6 6-6h20c3.314 0 6 2.686 6 6v20c0 3.314-2.686 6-6 6z" fill="#ffe6e2"/><circle cx="18.333" cy="18" fill="#fc573b" r="2"/><path d="m20.167 20.667h-3.667c-1.011 0-1.833.822-1.833 1.833v1c0 .276.224.5.5.5h6.333c.276 0 .5-.224.5-.5v-1c0-1.011-.822-1.833-1.833-1.833z" fill="#fc573b"/><g fill="#fd907e"><path d="m17.447 11.333 1.793-2.547c.107-.153.12-.353.04-.52-.087-.159-.26-.266-.447-.266h-6.92c.054.153.087.327.087.5v6.167h6.833c.187 0 .36-.107.447-.267.08-.167.067-.367-.04-.52z"/><path d="m10.5 24c-.276 0-.5-.224-.5-.5v-15c0-.276.224-.5.5-.5s.5.224.5.5v15c0 .276-.224.5-.5.5z"/></g></svg>