<?xml version="1.0" encoding="iso-8859-1"?>
<!-- Generator: Adobe Illustrator 19.0.0, SVG Export Plug-In . SVG Version: 6.00 Build 0)  -->
<svg version="1.1" id="Layer_1" xmlns="http://www.w3.org/2000/svg" xmlns:xlink="http://www.w3.org/1999/xlink" x="0px" y="0px"
	 viewBox="0 0 512 512" style="enable-background:new 0 0 512 512;" xml:space="preserve">
<path style="fill:#FFDB57;" d="M418.504,367.304H22.261C9.966,367.304,0,357.338,0,345.043V166.957
	c0-12.295,9.966-22.261,22.261-22.261h396.243c6.763,0,13.158,3.074,17.382,8.354l71.235,89.043c6.505,8.13,6.505,19.682,0,27.813
	l-71.235,89.044C431.663,364.23,425.267,367.304,418.504,367.304z"/>
<path style="fill:#FFFA7D;" d="M507.122,242.094C510.374,246.158,512,251.079,512,256H0v-89.043
	c0-12.295,9.966-22.261,22.261-22.261h396.243c6.763,0,13.158,3.074,17.382,8.354L507.122,242.094z"/>
<path style="fill:#FFBC00;" d="M296.07,367.304H22.261C9.966,367.304,0,357.338,0,345.043V166.957
	c0-12.295,9.966-22.261,22.261-22.261H296.07c6.763,0,13.158,3.074,17.382,8.354l71.235,89.043c6.505,8.13,6.505,19.682,0,27.813
	l-71.235,89.044C309.228,364.23,302.832,367.304,296.07,367.304z"/>
<path style="fill:#FFDB57;" d="M384.687,242.094c3.252,4.065,4.878,8.986,4.878,13.906H0v-89.043
	c0-12.295,9.966-22.261,22.261-22.261H296.07c6.763,0,13.158,3.074,17.382,8.354L384.687,242.094z"/>
<path style="fill:#FF6029;" d="M173.635,367.304H22.261C9.966,367.304,0,357.338,0,345.043V166.957
	c0-12.295,9.966-22.261,22.261-22.261h151.374c6.763,0,13.158,3.074,17.382,8.354l71.235,89.043c6.505,8.13,6.505,19.682,0,27.813
	l-71.235,89.044C186.793,364.23,180.398,367.304,173.635,367.304z"/>
<path style="fill:#FF8655;" d="M262.252,242.094c3.252,4.065,4.878,8.986,4.878,13.906H0v-89.043
	c0-12.295,9.966-22.261,22.261-22.261h151.374c6.763,0,13.158,3.074,17.382,8.354L262.252,242.094z"/>
<path style="fill:#FF6029;" d="M68.582,153.05l71.235,89.043c6.505,8.13,6.505,19.682,0,27.813L68.582,358.95
	c-4.224,5.28-10.62,8.354-17.382,8.354H22.261C9.966,367.304,0,357.338,0,345.043V166.957c0-12.295,9.966-22.261,22.261-22.261H51.2
	C57.963,144.696,64.358,147.77,68.582,153.05z"/>
<path style="fill:#B7441C;" d="M68.582,358.95c-4.224,5.28-10.62,8.355-17.382,8.355H22.261C9.966,367.304,0,357.338,0,345.043V256
	h144.696c0,4.921-1.626,9.842-4.878,13.906L68.582,358.95z"/>
<g>
</g>
<g>
</g>
<g>
</g>
<g>
</g>
<g>
</g>
<g>
</g>
<g>
</g>
<g>
</g>
<g>
</g>
<g>
</g>
<g>
</g>
<g>
</g>
<g>
</g>
<g>
</g>
<g>
</g>
</svg>
