<?xml version="1.0" encoding="UTF-8"?>
<svg id="image" width="100%" height="100%" viewBox="70 70 193.5 193.5" xml:space="preserve" xmlns="http://www.w3.org/2000/svg" xmlns:xlink="http://www.w3.org/1999/xlink">
  
  <title>Concentric Circle Symmetry</title>

  <desc>
    Concentric Circle String Art Symmetry
    Connecting circle perimeter line segments
    
    Watch it being drawn at http://goo.gl/Gq8n7j
    parameters: r1=16, r2=9, lines=90, scale to circle 2
    then change parameters and watch again
    
    by Jay Nick
    August 26, 2015
    
    STEAMcoded.org
  </desc>
  
  <defs>
    <clipPath id="cp1">
      <circle id="cp1c" cx="160" cy="160" r="90"/>
    </clipPath>
  </defs>
    
  <g id="title" transform="translate(166.75,74.5) scale(0.09)" style="text-anchor:middle;font-size:40px;font-family:Arial;fill:black;stroke:none;">
    <text x="0" y="0" style="font-weight:bold;fill:#333333;font-variant:small-caps;"><tspan style="fill:red;">Concentric</tspan><tspan style="fill:orange;"> Circle</tspan><tspan style="fill:green;"> String</tspan><tspan style="fill:navy;"> Art</tspan><tspan style="fill:purple;"> Symmetry</tspan></text>
  </g>

  <g id="art" style="fill:none;stroke-width:0.5px;stroke:rgb(128,0,255);" transform="translate(6.75,6.75)">
    <g id="clip" style="clip-path:url(#cp1);">
      <circle id="c1" cx="160" cy="160" r="160" style="fill:rgb(255,128,0);"/>
      <circle id="c2" cx="160" cy="160" r="90" style="fill:rgb(255,128,0);"/>
      <path id="ls" style="stroke-width:0.15px;" d="M160,0L160,70M171.2,0.4L171.1,70.7M182.3,1.6L182.1,72.8M193.3,3.5L192.7,76.2M204.1,6.2L202.9,80.9M214.7,9.6L212.3,86.8M225.1,13.8L221,93.8M235.1,18.7L228.7,101.9M244.8,24.3L235.4,110.8M254,30.6L240.9,120.5M262.8,37.4L245.2,130.9M271.1,44.9L248.1,141.6M278.9,52.9L249.7,152.7M286.1,61.5L249.9,163.8M292.6,70.5L248.8,174.9M298.6,80L246.2,185.8M303.8,89.9L242.4,196.3M308.3,100.1L237.2,206.2M312.2,110.6L230.9,215.4M315.2,121.3L223.5,223.8M317.6,132.2L215.1,231.1M319.1,143.3L205.9,237.4M319.9,154.4L196,242.5M319.9,165.6L185.5,246.3M319.1,176.7L174.6,248.8M317.6,187.8L163.5,249.9M315.2,198.7L152.3,249.7M312.2,209.4L141.3,248M308.3,219.9L130.5,245M303.8,230.1L120.2,240.7M298.6,240L110.5,235.2M292.6,249.5L101.6,228.5M286.1,258.5L93.6,220.7M278.9,267.1L86.6,212M271.1,275.1L80.7,202.6M262.8,282.6L76,192.4M254,289.4L72.7,181.8M244.8,295.7L70.6,170.8M235.1,301.3L70,159.7M225.1,306.2L70.7,148.5M214.7,310.4L72.8,137.6M204.1,313.8L76.3,126.9M193.3,316.5L81,116.8M182.3,318.4L87,107.4M171.2,319.6L94.1,98.7M160,320L102.1,91.1M148.8,319.6L111.1,84.4M137.7,318.4L120.9,79M126.7,316.5L131.2,74.7M115.9,313.8L142,71.8M105.3,310.4L153,70.3M94.9,306.2L164.2,70.1M84.9,301.3L175.3,71.3M75.2,295.7L186.1,73.9M66,289.4L196.6,77.8M57.2,282.6L206.5,82.9M48.9,275.1L215.7,89.3M41.1,267.1L224,96.7M33.9,258.5L231.3,105.1M27.4,249.5L237.6,114.4M21.4,240L242.6,124.4M16.2,230.1L246.4,134.9M11.7,219.9L248.9,145.7M7.8,209.4L249.9,156.9M4.8,198.7L249.6,168M2.4,187.8L248,179.1M0.9,176.7L244.9,189.8M0.1,165.6L240.6,200.1M0.1,154.4L235,209.7M0.9,143.3L228.3,218.6M2.4,132.2L220.5,226.6M4.8,121.3L211.8,233.6M7.8,110.6L202.3,239.5M11.7,100.1L192.1,244.1M16.2,89.9L181.4,247.4M21.4,80L170.4,249.4M27.4,70.5L159.3,250M33.9,61.5L148.2,249.2M41.1,52.9L137.2,247.1M48.9,44.9L126.6,243.6M57.2,37.4L116.5,238.8M66,30.6L107.1,232.8M75.2,24.3L98.5,225.7M84.9,18.7L90.8,217.6M94.9,13.8L84.2,208.6M105.3,9.6L78.8,198.8M115.9,6.2L74.6,188.5M126.7,3.5L71.8,177.7M137.7,1.6L70.2,166.6M148.8,0.4L70.1,155.5M160,0L71.4,144.4M171.2,0.4L74,133.5M182.3,1.6L77.9,123.1M193.3,3.5L83.1,113.2M204.1,6.2L89.5,104M214.7,9.6L97,95.7M225.1,13.8L105.4,88.4M235.1,18.7L114.7,82.2M244.8,24.3L124.7,77.2M254,30.6L135.2,73.5M262.8,37.4L146.1,71.1M271.1,44.9L157.2,70M278.9,52.9L168.4,70.4M286.1,61.5L179.4,72.1M292.6,70.5L190.1,75.2M298.6,80L200.4,79.6M303.8,89.9L210,85.2M308.3,100.1L218.9,92M312.2,110.6L226.9,99.8M315.2,121.3L233.8,108.5M317.6,132.2L239.6,118.1M319.1,143.3L244.2,128.2M319.9,154.4L247.5,138.9M319.9,165.6L249.4,149.9M319.1,176.7L250,161M317.6,187.8L249.2,172.2M315.2,198.7L247,183.1M312.2,209.4L243.4,193.7M308.3,219.9L238.6,203.8M303.8,230.1L232.6,213.2M298.6,240L225.5,221.8M292.6,249.5L217.3,229.4M286.1,258.5L208.3,236M278.9,267.1L198.5,241.3M271.1,275.1L188.1,245.5M262.8,282.6L177.3,248.3M254,289.4L166.3,249.8M244.8,295.7L155.1,249.9M235.1,301.3L144,248.6M225.1,306.2L133.2,245.9M214.7,310.4L122.8,241.9M204.1,313.8L112.9,236.7M193.3,316.5L103.8,230.3M182.3,318.4L95.5,222.8M171.2,319.6L88.2,214.3M160,320L82.1,205M148.8,319.6L77.1,195M137.7,318.4L73.4,184.5M126.7,316.5L71,173.6M115.9,313.8L70,162.4M105.3,310.4L70.4,151.3M94.9,306.2L72.2,140.3M84.9,301.3L75.3,129.5M75.2,295.7L79.7,119.3M66,289.4L85.4,109.7M57.2,282.6L92.2,100.8M48.9,275.1L100,92.9M41.1,267.1L108.8,86M33.9,258.5L118.4,80.2M27.4,249.5L128.6,75.7M21.4,240L139.2,72.4M16.2,230.1L150.2,70.5M11.7,219.9L161.4,70M7.8,209.4L172.5,70.9M4.8,198.7L183.5,73.1M2.4,187.8L194,76.7M0.9,176.7L204.1,81.5M0.1,165.6L213.5,87.6M0.1,154.4L222,94.8M0.9,143.3L229.6,103M2.4,132.2L236.1,112M4.8,121.3L241.5,121.8M7.8,110.6L245.6,132.2M11.7,100.1L248.4,143M16.2,89.9L249.8,154.1M21.4,80L249.8,165.2M27.4,70.5L248.5,176.3M33.9,61.5L245.8,187.1M41.1,52.9L241.8,197.6M48.9,44.9L236.5,207.4M57.2,37.4L230.1,216.5M66,30.6L222.5,224.7M75.2,24.3L214,232M84.9,18.7L204.7,238.1M94.9,13.8L194.7,243M105.3,9.6L184.1,246.7M115.9,6.2L173.2,249M126.7,3.5L162.1,250M137.7,1.6L150.9,249.5M148.8,0.4L139.9,247.7M160,0L129.2,244.6M171.2,0.4L119,240.1M182.3,1.6L109.4,234.4M193.3,3.5L100.6,227.6M204.1,6.2L92.7,219.7M214.7,9.6L85.8,210.9M225.1,13.8L80,201.3M235.1,18.7L75.5,191.1M244.8,24.3L72.3,180.4M254,30.6L70.5,169.4M262.8,37.4L70,158.3M271.1,44.9L70.9,147.1M278.9,52.9L73.2,136.2M286.1,61.5L76.8,125.6M292.6,70.5L81.7,115.6M298.6,80L87.8,106.3M303.8,89.9L95,97.7M308.3,100.1L103.2,90.2M312.2,110.6L112.3,83.7M315.2,121.3L122.1,78.4M317.6,132.2L132.5,74.3M319.1,143.3L143.3,71.6M319.9,154.4L154.4,70.2M319.9,165.6L165.6,70.2M319.1,176.7L176.7,71.6M317.6,187.8L187.5,74.3M315.2,198.7L197.9,78.4M312.2,209.4L207.7,83.7M308.3,219.9L216.8,90.2M303.8,230.1L225,97.7M298.6,240L232.2,106.3M292.6,249.5L238.3,115.6M286.1,258.5L243.2,125.6M278.9,267.1L246.8,136.2M271.1,275.1L249.1,147.1M262.8,282.6L250,158.3M254,289.4L249.5,169.4M244.8,295.7L247.7,180.4M235.1,301.3L244.5,191.1M225.1,306.2L240,201.3M214.7,310.4L234.2,210.9M204.1,313.8L227.3,219.7M193.3,316.5L219.4,227.6M182.3,318.4L210.6,234.4M171.2,319.6L201,240.1M160,320L190.8,244.6M148.8,319.6L180.1,247.7M137.7,318.4L169.1,249.5M126.7,316.5L157.9,250M115.9,313.8L146.8,249M105.3,310.4L135.9,246.7M94.9,306.2L125.3,243M84.9,301.3L115.3,238.1M75.2,295.7L106,232M66,289.4L97.5,224.7M57.2,282.6L89.9,216.5M48.9,275.1L83.5,207.4M41.1,267.1L78.2,197.6M33.9,258.5L74.2,187.1M27.4,249.5L71.5,176.3M21.4,240L70.2,165.2M16.2,230.1L70.2,154.1M11.7,219.9L71.6,143M7.8,209.4L74.4,132.2M4.8,198.7L78.5,121.8M2.4,187.8L83.9,112M0.9,176.7L90.4,103M0.1,165.6L98,94.8M0.1,154.4L106.5,87.6M0.9,143.3L115.9,81.5M2.4,132.2L126,76.7M4.8,121.3L136.5,73.1M7.8,110.6L147.5,70.9M11.7,100.1L158.6,70M16.2,89.9L169.8,70.5M21.4,80L180.8,72.4M27.4,70.5L191.4,75.7M33.9,61.5L201.6,80.2M41.1,52.9L211.2,86M48.9,44.9L220,92.9M57.2,37.4L227.8,100.8M66,30.6L234.6,109.7M75.2,24.3L240.3,119.3M84.9,18.7L244.7,129.5M94.9,13.8L247.8,140.3M105.3,9.6L249.6,151.3M115.9,6.2L250,162.4M126.7,3.5L249,173.6M137.7,1.6L246.6,184.5M148.8,0.4L242.9,195M160,0L237.9,205M171.2,0.4L231.8,214.3M182.3,1.6L224.5,222.8M193.3,3.5L216.2,230.3M204.1,6.2L207.1,236.7M214.7,9.6L197.2,241.9M225.1,13.8L186.8,245.9M235.1,18.7L176,248.6M244.8,24.3L164.9,249.9M254,30.6L153.7,249.8M262.8,37.4L142.7,248.3M271.1,44.9L131.9,245.5M278.9,52.9L121.5,241.3M286.1,61.5L111.7,236M292.6,70.5L102.7,229.4M298.6,80L94.5,221.8M303.8,89.9L87.4,213.2M308.3,100.1L81.4,203.8M312.2,110.6L76.6,193.7M315.2,121.3L73,183.1M317.6,132.2L70.8,172.2M319.1,143.3L70,161M319.9,154.4L70.6,149.9M319.9,165.6L72.5,138.9M319.1,176.7L75.8,128.2M317.6,187.8L80.4,118.1M315.2,198.7L86.2,108.5M312.2,209.4L93.1,99.8M308.3,219.9L101.1,92M303.8,230.1L110,85.2M298.6,240L119.6,79.6M292.6,249.5L129.9,75.2M286.1,258.5L140.6,72.1M278.9,267.1L151.6,70.4M271.1,275.1L162.8,70M262.8,282.6L173.9,71.1M254,289.4L184.8,73.5M244.8,295.7L195.3,77.2M235.1,301.3L205.3,82.2M225.1,306.2L214.6,88.4M214.7,310.4L223,95.7M204.1,313.8L230.5,104M193.3,316.5L236.9,113.2M182.3,318.4L242.1,123.1M171.2,319.6L246,133.5M160,320L248.6,144.4M148.8,319.6L249.9,155.5M137.7,318.4L249.8,166.6M126.7,316.5L248.2,177.7M115.9,313.8L245.4,188.5M105.3,310.4L241.2,198.8M94.9,306.2L235.8,208.6M84.9,301.3L229.2,217.6M75.2,295.7L221.5,225.7M66,289.4L212.9,232.8M57.2,282.6L203.5,238.8M48.9,275.1L193.4,243.6M41.1,267.1L182.8,247.1M33.9,258.5L171.8,249.2M27.4,249.5L160.7,250M21.4,240L149.6,249.4M16.2,230.1L138.6,247.4M11.7,219.9L127.9,244.1M7.8,209.4L117.7,239.5M4.8,198.7L108.2,233.6M2.4,187.8L99.5,226.6M0.9,176.7L91.7,218.6M0.1,165.6L85,209.7M0.1,154.4L79.4,200.1M0.9,143.3L75.1,189.8M2.4,132.2L72,179.1M4.8,121.3L70.4,168M7.8,110.6L70.1,156.9M11.7,100.1L71.1,145.7M16.2,89.9L73.6,134.9M21.4,80L77.4,124.4M27.4,70.5L82.4,114.4M33.9,61.5L88.7,105.1M41.1,52.9L96,96.7M48.9,44.9L104.3,89.3M57.2,37.4L113.5,82.9M66,30.6L123.4,77.8M75.2,24.3L133.9,73.9M84.9,18.7L144.7,71.3M94.9,13.8L155.8,70.1M105.3,9.6L167,70.3M115.9,6.2L178,71.8M126.7,3.5L188.8,74.7M137.7,1.6L199.1,79M148.8,0.4L208.9,84.4M160,0L217.9,91.1M171.2,0.4L225.9,98.7M182.3,1.6L233,107.4M193.3,3.5L239,116.8M204.1,6.2L243.7,126.9M214.7,9.6L247.2,137.6M225.1,13.8L249.3,148.5M235.1,18.7L250,159.7M244.8,24.3L249.4,170.8M254,30.6L247.3,181.8M262.8,37.4L244,192.4M271.1,44.9L239.3,202.6M278.9,52.9L233.4,212M286.1,61.5L226.4,220.7M292.6,70.5L218.4,228.5M298.6,80L209.5,235.2M303.8,89.9L199.8,240.7M308.3,100.1L189.5,245M312.2,110.6L178.7,248M315.2,121.3L167.7,249.7M317.6,132.2L156.5,249.9M319.1,143.3L145.4,248.8M319.9,154.4L134.5,246.3M319.9,165.6L124,242.5M319.1,176.7L114.1,237.4M317.6,187.8L104.9,231.1M315.2,198.7L96.5,223.8M312.2,209.4L89.1,215.4M308.3,219.9L82.8,206.2M303.8,230.1L77.6,196.3M298.6,240L73.8,185.8M292.6,249.5L71.2,174.9M286.1,258.5L70.1,163.8M278.9,267.1L70.3,152.7M271.1,275.1L71.9,141.6M262.8,282.6L74.8,130.9M254,289.4L79.1,120.5M244.8,295.7L84.6,110.8M235.1,301.3L91.3,101.9M225.1,306.2L99,93.8M214.7,310.4L107.7,86.8M204.1,313.8L117.1,80.9M193.3,316.5L127.3,76.2M182.3,318.4L137.9,72.8M171.2,319.6L148.9,70.7M160,320L160,70M148.8,319.6L171.1,70.7M137.7,318.4L182.1,72.8M126.7,316.5L192.7,76.2M115.9,313.8L202.9,80.9M105.3,310.4L212.3,86.8M94.9,306.2L221,93.8M84.9,301.3L228.7,101.9M75.2,295.7L235.4,110.8M66,289.4L240.9,120.5M57.2,282.6L245.2,130.9M48.9,275.1L248.1,141.6M41.1,267.1L249.7,152.7M33.9,258.5L249.9,163.8M27.4,249.5L248.8,174.9M21.4,240L246.2,185.8M16.2,230.1L242.4,196.3M11.7,219.9L237.2,206.2M7.8,209.4L230.9,215.4M4.8,198.7L223.5,223.8M2.4,187.8L215.1,231.1M0.9,176.7L205.9,237.4M0.1,165.6L196,242.5M0.1,154.4L185.5,246.3M0.9,143.3L174.6,248.8M2.4,132.2L163.5,249.9M4.8,121.3L152.3,249.7M7.8,110.6L141.3,248M11.7,100.1L130.5,245M16.2,89.9L120.2,240.7M21.4,80L110.5,235.2M27.4,70.5L101.6,228.5M33.9,61.5L93.6,220.7M41.1,52.9L86.6,212M48.9,44.9L80.7,202.6M57.2,37.4L76,192.4M66,30.6L72.7,181.8M75.2,24.3L70.6,170.8M84.9,18.7L70,159.7M94.9,13.8L70.7,148.5M105.3,9.6L72.8,137.6M115.9,6.2L76.3,126.9M126.7,3.5L81,116.8M137.7,1.6L87,107.4M148.8,0.4L94.1,98.7M160,0L102.1,91.1M171.2,0.4L111.1,84.4M182.3,1.6L120.9,79M193.3,3.5L131.2,74.7M204.1,6.2L142,71.8M214.7,9.6L153,70.3M225.1,13.8L164.2,70.1M235.1,18.7L175.3,71.3M244.8,24.3L186.1,73.9M254,30.6L196.6,77.8M262.8,37.4L206.5,82.9M271.1,44.9L215.7,89.3M278.9,52.9L224,96.7M286.1,61.5L231.3,105.1M292.6,70.5L237.6,114.4M298.6,80L242.6,124.4M303.8,89.9L246.4,134.9M308.3,100.1L248.9,145.7M312.2,110.6L249.9,156.9M315.2,121.3L249.6,168M317.6,132.2L248,179.1M319.1,143.3L244.9,189.8M319.9,154.4L240.6,200.1M319.9,165.6L235,209.7M319.1,176.7L228.3,218.6M317.6,187.8L220.5,226.6M315.2,198.7L211.8,233.6M312.2,209.4L202.3,239.5M308.3,219.9L192.1,244.1M303.8,230.1L181.4,247.4M298.6,240L170.4,249.4M292.6,249.5L159.3,250M286.1,258.5L148.2,249.2M278.9,267.1L137.2,247.1M271.1,275.1L126.6,243.6M262.8,282.6L116.5,238.8M254,289.4L107.1,232.8M244.8,295.7L98.5,225.7M235.1,301.3L90.8,217.6M225.1,306.2L84.2,208.6M214.7,310.4L78.8,198.8M204.1,313.8L74.6,188.5M193.3,316.5L71.8,177.7M182.3,318.4L70.2,166.6M171.2,319.6L70.1,155.5M160,320L71.4,144.4M148.8,319.6L74,133.5M137.7,318.4L77.9,123.1M126.7,316.5L83.1,113.2M115.9,313.8L89.5,104M105.3,310.4L97,95.7M94.9,306.2L105.4,88.4M84.9,301.3L114.7,82.2M75.2,295.7L124.7,77.2M66,289.4L135.2,73.5M57.2,282.6L146.1,71.1M48.9,275.1L157.2,70M41.1,267.1L168.4,70.4M33.9,258.5L179.4,72.1M27.4,249.5L190.1,75.2M21.4,240L200.4,79.6M16.2,230.1L210,85.2M11.7,219.9L218.9,92M7.8,209.4L226.9,99.8M4.8,198.7L233.8,108.5M2.4,187.8L239.6,118.1M0.9,176.7L244.2,128.2M0.1,165.6L247.5,138.9M0.1,154.4L249.4,149.9M0.9,143.3L250,161M2.4,132.2L249.2,172.2M4.8,121.3L247,183.1M7.8,110.6L243.4,193.7M11.7,100.1L238.6,203.8M16.2,89.9L232.6,213.2M21.4,80L225.5,221.8M27.4,70.5L217.3,229.4M33.9,61.5L208.3,236M41.1,52.9L198.5,241.3M48.9,44.9L188.1,245.5M57.2,37.4L177.3,248.3M66,30.6L166.3,249.8M75.2,24.3L155.1,249.9M84.9,18.7L144,248.6M94.9,13.8L133.2,245.9M105.3,9.6L122.8,241.9M115.9,6.2L112.9,236.7M126.7,3.5L103.8,230.3M137.7,1.6L95.5,222.8M148.8,0.4L88.2,214.3M160,0L82.1,205M171.2,0.4L77.1,195M182.3,1.6L73.4,184.5M193.3,3.5L71,173.6M204.1,6.2L70,162.4M214.7,9.6L70.4,151.3M225.1,13.8L72.2,140.3M235.1,18.7L75.3,129.5M244.8,24.3L79.7,119.3M254,30.6L85.4,109.7M262.8,37.4L92.2,100.8M271.1,44.9L100,92.9M278.9,52.9L108.8,86M286.1,61.5L118.4,80.2M292.6,70.5L128.6,75.7M298.6,80L139.2,72.4M303.8,89.9L150.2,70.5M308.3,100.1L161.4,70M312.2,110.6L172.5,70.9M315.2,121.3L183.5,73.1M317.6,132.2L194,76.7M319.1,143.3L204.1,81.5M319.9,154.4L213.5,87.6M319.9,165.6L222,94.8M319.1,176.7L229.6,103M317.6,187.8L236.1,112M315.2,198.7L241.5,121.8M312.2,209.4L245.6,132.2M308.3,219.9L248.4,143M303.8,230.1L249.8,154.1M298.6,240L249.8,165.2M292.6,249.5L248.5,176.3M286.1,258.5L245.8,187.1M278.9,267.1L241.8,197.6M271.1,275.1L236.5,207.4M262.8,282.6L230.1,216.5M254,289.4L222.5,224.7M244.8,295.7L214,232M235.1,301.3L204.7,238.1M225.1,306.2L194.7,243M214.7,310.4L184.1,246.7M204.1,313.8L173.2,249M193.3,316.5L162.1,250M182.3,318.4L150.9,249.5M171.2,319.6L139.9,247.7M160,320L129.2,244.6M148.8,319.6L119,240.1M137.7,318.4L109.4,234.4M126.7,316.5L100.6,227.6M115.9,313.8L92.7,219.7M105.3,310.4L85.8,210.9M94.9,306.2L80,201.3M84.9,301.3L75.5,191.1M75.2,295.7L72.3,180.4M66,289.4L70.5,169.4M57.2,282.6L70,158.3M48.9,275.1L70.9,147.1M41.1,267.1L73.2,136.2M33.9,258.5L76.8,125.6M27.4,249.5L81.7,115.6M21.4,240L87.8,106.3M16.2,230.1L95,97.7M11.7,219.9L103.2,90.2M7.8,209.4L112.3,83.7M4.8,198.7L122.1,78.4M2.4,187.8L132.5,74.3M0.9,176.7L143.3,71.6M0.1,165.6L154.4,70.2M0.1,154.4L165.6,70.2M0.9,143.3L176.7,71.6M2.4,132.2L187.5,74.3M4.8,121.3L197.9,78.4M7.8,110.6L207.7,83.7M11.7,100.1L216.8,90.2M16.2,89.9L225,97.7M21.4,80L232.2,106.3M27.4,70.5L238.3,115.6M33.9,61.5L243.2,125.6M41.1,52.9L246.8,136.2M48.9,44.9L249.1,147.1M57.2,37.4L250,158.3M66,30.6L249.5,169.4M75.2,24.3L247.7,180.4M84.9,18.7L244.5,191.1M94.9,13.8L240,201.3M105.3,9.6L234.2,210.9M115.9,6.2L227.3,219.7M126.7,3.5L219.4,227.6M137.7,1.6L210.6,234.4M148.8,0.4L201,240.1M160,0L190.8,244.6M171.2,0.4L180.1,247.7M182.3,1.6L169.1,249.5M193.3,3.5L157.9,250M204.1,6.2L146.8,249M214.7,9.6L135.9,246.7M225.1,13.8L125.3,243M235.1,18.7L115.3,238.1M244.8,24.3L106,232M254,30.6L97.5,224.7M262.8,37.4L89.9,216.5M271.1,44.9L83.5,207.4M278.9,52.9L78.2,197.6M286.1,61.5L74.2,187.1M292.6,70.5L71.5,176.3M298.6,80L70.2,165.2M303.8,89.9L70.2,154.1M308.3,100.1L71.6,143M312.2,110.6L74.4,132.2M315.2,121.3L78.5,121.8M317.6,132.2L83.9,112M319.1,143.3L90.4,103M319.9,154.4L98,94.8M319.9,165.6L106.5,87.6M319.1,176.7L115.9,81.5M317.6,187.8L126,76.7M315.2,198.7L136.5,73.1M312.2,209.4L147.5,70.9M308.3,219.9L158.6,70M303.8,230.1L169.8,70.5M298.6,240L180.8,72.4M292.6,249.5L191.4,75.7M286.1,258.5L201.6,80.2M278.9,267.1L211.2,86M271.1,275.1L220,92.9M262.8,282.6L227.8,100.8M254,289.4L234.6,109.7M244.8,295.7L240.3,119.3M235.1,301.3L244.7,129.5M225.1,306.2L247.8,140.3M214.7,310.4L249.6,151.3M204.1,313.8L250,162.4M193.3,316.5L249,173.6M182.3,318.4L246.6,184.5M171.2,319.6L242.9,195M160,320L237.9,205M148.8,319.6L231.8,214.3M137.7,318.4L224.5,222.8M126.7,316.5L216.2,230.3M115.9,313.8L207.1,236.7M105.3,310.4L197.2,241.9M94.9,306.2L186.8,245.9M84.9,301.3L176,248.6M75.2,295.7L164.9,249.9M66,289.4L153.7,249.8M57.2,282.6L142.7,248.3M48.9,275.1L131.9,245.5M41.1,267.1L121.5,241.3M33.9,258.5L111.7,236M27.4,249.5L102.7,229.4M21.4,240L94.5,221.8M16.2,230.1L87.4,213.2M11.7,219.9L81.4,203.8M7.8,209.4L76.6,193.7M4.8,198.7L73,183.1M2.4,187.8L70.8,172.2M0.9,176.7L70,161M0.1,165.6L70.6,149.9M0.1,154.4L72.5,138.9M0.9,143.3L75.8,128.2M2.4,132.2L80.4,118.1M4.8,121.3L86.2,108.5M7.8,110.6L93.1,99.8M11.7,100.1L101.1,92M16.2,89.9L110,85.2M21.4,80L119.6,79.6M27.4,70.5L129.9,75.2M33.9,61.5L140.6,72.1M41.1,52.9L151.6,70.4M48.9,44.9L162.8,70M57.2,37.4L173.9,71.1M66,30.6L184.8,73.5M75.2,24.3L195.3,77.2M84.9,18.7L205.3,82.2M94.9,13.8L214.6,88.4M105.3,9.6L223,95.7M115.9,6.2L230.5,104M126.7,3.5L236.9,113.2M137.7,1.6L242.1,123.1M148.8,0.4L246,133.5M160,0L248.6,144.4M171.2,0.4L249.9,155.5M182.3,1.6L249.8,166.6M193.3,3.5L248.2,177.7M204.1,6.2L245.4,188.5M214.7,9.6L241.2,198.8M225.1,13.8L235.8,208.6M235.1,18.7L229.2,217.6M244.8,24.3L221.5,225.7M254,30.6L212.9,232.8M262.8,37.4L203.5,238.8M271.1,44.9L193.4,243.6M278.9,52.9L182.8,247.1M286.1,61.5L171.8,249.2M292.6,70.5L160.7,250M298.6,80L149.6,249.4M303.8,89.9L138.6,247.4M308.3,100.1L127.9,244.1M312.2,110.6L117.7,239.5M315.2,121.3L108.2,233.6M317.6,132.2L99.5,226.6M319.1,143.3L91.7,218.6M319.9,154.4L85,209.7M319.9,165.6L79.4,200.1M319.1,176.7L75.1,189.8M317.6,187.8L72,179.1M315.2,198.7L70.4,168M312.2,209.4L70.1,156.9M308.3,219.9L71.1,145.7M303.8,230.1L73.6,134.9M298.6,240L77.4,124.4M292.6,249.5L82.4,114.4M286.1,258.5L88.7,105.1M278.9,267.1L96,96.7M271.1,275.1L104.3,89.3M262.8,282.6L113.5,82.9M254,289.4L123.4,77.8M244.8,295.7L133.9,73.9M235.1,301.3L144.7,71.3M225.1,306.2L155.8,70.1M214.7,310.4L167,70.3M204.1,313.8L178,71.8M193.3,316.5L188.8,74.7M182.3,318.4L199.1,79M171.2,319.6L208.9,84.4M160,320L217.9,91.1M148.8,319.6L225.9,98.7M137.7,318.4L233,107.4M126.7,316.5L239,116.8M115.9,313.8L243.7,126.9M105.3,310.4L247.2,137.6M94.9,306.2L249.3,148.5M84.9,301.3L250,159.7M75.2,295.7L249.4,170.8M66,289.4L247.3,181.8M57.2,282.6L244,192.4M48.9,275.1L239.3,202.6M41.1,267.1L233.4,212M33.9,258.5L226.4,220.7M27.4,249.5L218.4,228.5M21.4,240L209.5,235.2M16.2,230.1L199.8,240.7M11.7,219.9L189.5,245M7.8,209.4L178.7,248M4.8,198.7L167.7,249.7M2.4,187.8L156.5,249.9M0.9,176.7L145.4,248.8M0.1,165.6L134.5,246.3M0.1,154.4L124,242.5M0.9,143.3L114.1,237.4M2.4,132.2L104.9,231.1M4.8,121.3L96.5,223.8M7.8,110.6L89.1,215.4M11.7,100.1L82.8,206.2M16.2,89.9L77.6,196.3M21.4,80L73.8,185.8M27.4,70.5L71.2,174.9M33.9,61.5L70.1,163.8M41.1,52.9L70.3,152.7M48.9,44.9L71.9,141.6M57.2,37.4L74.8,130.9M66,30.6L79.1,120.5M75.2,24.3L84.6,110.8M84.9,18.7L91.3,101.9M94.9,13.8L99,93.8M105.3,9.6L107.7,86.8M115.9,6.2L117.1,80.9M126.7,3.5L127.3,76.2M137.7,1.6L137.9,72.8M148.8,0.4L148.9,70.7M160,0L160,70M171.2,0.4L171.1,70.7"/>
    </g>
  </g>
    
  <a xlink:href="http://steamcoded.org" _target="blank">
    <g id="credits" transform="translate(166.75,261.7) scale(0.09)" style="text-anchor:middle;font-size:40px;font-family:Arial;fill:black;stroke:none;">
      <text x="1" y="1" style="font-weight:bold;font-style:italic;fill:#333333;stroke:#333333;stroke-width:0.5px;">STEAM<tspan style="font-variant:small-caps;">coded.org</tspan></text>
      <text x="0" y="0" style="font-weight:bold;font-style:italic;"><tspan style="fill:red;">S</tspan><tspan style="fill:orange;">T</tspan><tspan style="fill:lime;">E</tspan><tspan style="fill:#5555ff;">A</tspan><tspan style="fill:purple;">M</tspan><tspan style="fill:blue;font-variant:small-caps;">coded.org</tspan></text>
    </g>
  </a>

</svg>