<?xml version="1.0" encoding="UTF-8"?>
<svg id="image" width="100%" height="100%" viewBox="500 500 236.5 236.5" xml:space="preserve" xmlns="http://www.w3.org/2000/svg" xmlns:xlink="http://www.w3.org/1999/xlink">
  
  <title>Concentric Circle Symmetry</title>

  <desc>
    Concentric Circle String Art Symmetry
    Connecting circle perimeter line segments
    
    Watch it being drawn at http://goo.gl/Gq8n7j
    parameters: r1=61, r2=11, lines=100, scale to circle 2
    then change parameters and watch again
    
    by Jay Nick
    August 26, 2015
    
    STEAMcoded.org
  </desc>  
  
  <defs>
    <clipPath id="cp1">
      <circle id="cp1c" cx="610" cy="610" r="110"/>
    </clipPath>
  </defs>

  <g id="title" transform="translate(618.25,505.5) scale(0.11)" style="text-anchor:middle;font-size:40px;font-family:Arial;fill:black;stroke:none;">
    <text x="0" y="0" style="font-weight:bold;fill:#333333;font-variant:small-caps;"><tspan style="fill:red;">Concentric</tspan><tspan style="fill:orange;"> Circle</tspan><tspan style="fill:green;"> String</tspan><tspan style="fill:navy;"> Art</tspan><tspan style="fill:purple;"> Symmetry</tspan></text>
  </g>

  <g id="art" style="fill:none;stroke-width:0.5px;stroke:rgb(192,192,0);" transform="translate(8.25,8.25)">
    <g id="clip" style="clip-path:url(#cp1);">
      <circle id="c1" cx="610" cy="610" r="610" style="fill:navy;"/>
      <circle id="c2" cx="610" cy="610" r="110" style="fill:navy;"/>
      <path id="ls" style="stroke-width:0.15px;" d="M610,0L610,500M648.3,1.2L647.6,506.6M686.5,4.8L680.6,525.6M724.3,10.8L705.2,554.8M761.7,19.2L718.3,590.6M798.5,29.9L718.4,628.8M834.6,42.8L705.5,664.6M869.7,58.1L681.1,693.9M903.9,75.5L648.1,713.2M936.9,95L610.6,720M968.5,116.5L573,713.6M998.8,140L539.9,694.8M1027.6,165.3L515.2,665.7M1054.7,192.4L501.8,630M1080,221.2L501.5,591.9M1103.5,251.5L514.2,555.9M1125,283.1L538.4,526.5M1144.5,316.1L571.3,507M1161.9,350.3L608.7,500M1177.2,385.4L646.4,506.2M1190.1,421.5L679.6,524.8M1200.8,458.3L704.5,553.7M1209.2,495.7L718.1,589.4M1215.2,533.5L718.6,627.5M1218.8,571.7L706.1,663.5M1220,610L682,693.1M1218.8,648.3L649.3,712.7M1215.2,686.5L611.9,720M1209.2,724.3L574.2,714M1200.8,761.7L540.9,695.6M1190.1,798.5L515.8,666.8M1177.2,834.6L502.1,631.2M1161.9,869.7L501.3,593.1M1144.5,903.9L513.6,557M1125,936.9L537.5,527.3M1103.5,968.5L570.1,507.5M1080,998.8L607.5,500M1054.7,1027.6L645.2,505.8M1027.6,1054.7L678.7,524.1M998.8,1080L703.9,552.7M968.5,1103.5L717.8,588.2M936.9,1125L718.8,626.3M903.9,1144.5L706.7,662.4M869.7,1161.9L683,692.3M834.6,1177.2L650.5,712.3M798.5,1190.1L613.1,720M761.7,1200.8L575.4,714.4M724.3,1209.2L541.8,696.3M686.5,1215.2L516.5,667.9M648.3,1218.8L502.3,632.5M610,1220L501.1,594.3M571.7,1218.8L513,558.1M533.5,1215.2L536.6,528.1M495.7,1209.2L568.9,508M458.3,1200.8L606.2,500.1M421.5,1190.1L644,505.4M385.4,1177.2L677.7,523.3M350.3,1161.9L703.2,551.6M316.1,1144.5L717.6,586.9M283.1,1125L719,625M251.5,1103.5L707.3,661.3M221.2,1080L683.9,691.5M192.4,1054.7L651.7,711.8M165.3,1027.6L614.4,719.9M140,998.8L576.6,714.8M116.5,968.5L542.8,697.1M95,936.9L517.1,668.9M75.5,903.9L502.6,633.7M58.1,869.7L500.9,595.6M42.8,834.6L512.4,559.2M29.9,798.5L535.6,529M19.2,761.7L567.8,508.4M10.8,724.3L605,500.1M4.8,686.5L642.8,505M1.2,648.3L676.7,522.5M0,610L702.5,550.5M1.2,571.7L717.3,585.7M4.8,533.5L719.1,623.8M10.8,495.7L707.9,660.2M19.2,458.3L684.8,690.6M29.9,421.5L652.8,711.3M42.8,385.4L615.7,719.9M58.1,350.3L577.8,715.2M75.5,316.1L543.8,697.9M95,283.1L517.8,670M116.5,251.5L502.9,634.9M140,221.2L500.8,596.8M165.3,192.4L511.8,560.3M192.4,165.3L534.7,529.8M221.2,140L566.6,508.9M251.5,116.5L603.7,500.2M283.1,95L641.6,504.6M316.1,75.5L675.7,521.8M350.3,58.1L701.9,549.5M385.4,42.8L717,584.5M421.5,29.9L719.3,622.5M458.3,19.2L708.4,659.1M495.7,10.8L685.8,689.8M533.5,4.8L654,710.8M571.7,1.2L616.9,719.8M610,0L579,715.5M648.3,1.2L544.8,698.6M686.5,4.8L518.5,671M724.3,10.8L503.2,636.1M761.7,19.2L500.6,598.1M798.5,29.9L511.3,561.5M834.6,42.8L533.8,530.7M869.7,58.1L565.5,509.4M903.9,75.5L602.5,500.3M936.9,95L640.4,504.3M968.5,116.5L674.7,521M998.8,140L701.2,548.4M1027.6,165.3L716.7,583.3M1054.7,192.4L719.4,621.3M1080,221.2L709,658M1103.5,251.5L686.7,688.9M1125,283.1L655.1,710.3M1144.5,316.1L618.2,719.7M1161.9,350.3L580.2,715.9M1177.2,385.4L545.9,699.4M1190.1,421.5L519.2,672.1M1200.8,458.3L503.5,637.4M1209.2,495.7L500.5,599.3M1215.2,533.5L510.7,562.6M1218.8,571.7L532.9,531.6M1220,610L564.3,509.9M1218.8,648.3L601.2,500.4M1215.2,686.5L639.2,503.9M1209.2,724.3L673.6,520.3M1200.8,761.7L700.4,547.4M1190.1,798.5L716.4,582M1177.2,834.6L719.5,620M1161.9,869.7L709.5,656.8M1144.5,903.9L687.6,688M1125,936.9L656.3,709.8M1103.5,968.5L619.4,719.6M1080,998.8L581.4,716.2M1054.7,1027.6L546.9,700.1M1027.6,1054.7L519.9,673.1M998.8,1080L503.8,638.6M968.5,1103.5L500.4,600.6M936.9,1125L510.2,563.7M903.9,1144.5L532,532.4M869.7,1161.9L563.2,510.5M834.6,1177.2L600,500.5M798.5,1190.1L638,503.6M761.7,1200.8L672.6,519.6M724.3,1209.2L699.7,546.4M686.5,1215.2L716.1,580.8M648.3,1218.8L719.6,618.8M610,1220L710.1,655.7M571.7,1218.8L688.4,687.1M533.5,1215.2L657.4,709.3M495.7,1209.2L620.7,719.5M458.3,1200.8L582.6,716.5M421.5,1190.1L547.9,700.8M385.4,1177.2L520.6,674.1M350.3,1161.9L504.1,639.8M316.1,1144.5L500.3,601.8M283.1,1125L509.7,564.9M251.5,1103.5L531.1,533.3M221.2,1080L562,511M192.4,1054.7L598.7,500.6M165.3,1027.6L636.7,503.3M140,998.8L671.6,518.8M116.5,968.5L699,545.3M95,936.9L715.7,579.6M75.5,903.9L719.7,617.5M58.1,869.7L710.6,654.5M42.8,834.6L689.3,686.2M29.9,798.5L658.5,708.7M19.2,761.7L621.9,719.4M10.8,724.3L583.9,716.8M4.8,686.5L549,701.5M1.2,648.3L521.4,675.2M0,610L504.5,641M1.2,571.7L500.2,603.1M4.8,533.5L509.2,566M10.8,495.7L530.2,534.2M19.2,458.3L560.9,511.6M29.9,421.5L597.5,500.7M42.8,385.4L635.5,503M58.1,350.3L670.5,518.1M75.5,316.1L698.2,544.3M95,283.1L715.4,578.4M116.5,251.5L719.8,616.3M140,221.2L711.1,653.4M165.3,192.4L690.2,685.3M192.4,165.3L659.7,708.2M221.2,140L623.2,719.2M251.5,116.5L585.1,717.1M283.1,95L550,702.2M316.1,75.5L522.1,676.2M350.3,58.1L504.8,642.2M385.4,42.8L500.1,604.3M421.5,29.9L508.7,567.2M458.3,19.2L529.4,535.2M495.7,10.8L559.8,512.1M533.5,4.8L596.2,500.9M571.7,1.2L634.3,502.7M610,0L669.5,517.5M648.3,1.2L697.5,543.3M686.5,4.8L715,577.2M724.3,10.8L719.9,615M761.7,19.2L711.6,652.2M798.5,29.9L691,684.4M834.6,42.8L660.8,707.6M869.7,58.1L624.4,719.1M903.9,75.5L586.3,717.4M936.9,95L551.1,702.9M968.5,116.5L522.9,677.2M998.8,140L505.2,643.4M1027.6,165.3L500.1,605.6M1054.7,192.4L508.2,568.3M1080,221.2L528.5,536.1M1103.5,251.5L558.7,512.7M1125,283.1L595,501M1144.5,316.1L633.1,502.4M1161.9,350.3L668.4,516.8M1177.2,385.4L696.7,542.3M1190.1,421.5L714.6,576M1200.8,458.3L719.9,613.8M1209.2,495.7L712,651.1M1215.2,533.5L691.9,683.4M1218.8,571.7L661.9,707M1220,610L625.7,718.9M1218.8,648.3L587.5,717.7M1215.2,686.5L552.1,703.5M1209.2,724.3L523.7,678.2M1200.8,761.7L505.6,644.6M1190.1,798.5L500,606.9M1177.2,834.6L507.7,569.5M1161.9,869.7L527.7,537M1144.5,903.9L557.6,513.3M1125,936.9L593.7,501.2M1103.5,968.5L631.8,502.2M1080,998.8L667.3,516.1M1054.7,1027.6L695.9,541.3M1027.6,1054.7L714.2,574.8M998.8,1080L720,612.5M968.5,1103.5L712.5,649.9M936.9,1125L692.7,682.5M903.9,1144.5L663,706.4M869.7,1161.9L626.9,718.7M834.6,1177.2L588.8,717.9M798.5,1190.1L553.2,704.2M761.7,1200.8L524.4,679.1M724.3,1209.2L506,645.8M686.5,1215.2L500,608.1M648.3,1218.8L507.3,570.7M610,1220L526.9,538M571.7,1218.8L556.5,513.9M533.5,1215.2L592.5,501.4M495.7,1209.2L630.6,501.9M458.3,1200.8L666.3,515.5M421.5,1190.1L695.2,540.4M385.4,1177.2L713.8,573.6M350.3,1161.9L720,611.3M316.1,1144.5L713,648.7M283.1,1125L693.5,681.6M251.5,1103.5L664.1,705.8M221.2,1080L628.1,718.5M192.4,1054.7L590,718.2M165.3,1027.6L554.3,704.8M140,998.8L525.2,680.1M116.5,968.5L506.4,647M95,936.9L500,609.4M75.5,903.9L506.8,571.9M58.1,869.7L526.1,538.9M42.8,834.6L555.4,514.5M29.9,798.5L591.2,501.6M19.2,761.7L629.4,501.7M10.8,724.3L665.2,514.8M4.8,686.5L694.4,539.4M1.2,648.3L713.4,572.4M0,610L720,610M1.2,571.7L713.4,647.6M4.8,533.5L694.4,680.6M10.8,495.7L665.2,705.2M19.2,458.3L629.4,718.3M29.9,421.5L591.2,718.4M42.8,385.4L555.4,705.5M58.1,350.3L526.1,681.1M75.5,316.1L506.8,648.1M95,283.1L500,610.6M116.5,251.5L506.4,573M140,221.2L525.2,539.9M165.3,192.4L554.3,515.2M192.4,165.3L590,501.8M221.2,140L628.1,501.5M251.5,116.5L664.1,514.2M283.1,95L693.5,538.4M316.1,75.5L713,571.3M350.3,58.1L720,608.7M385.4,42.8L713.8,646.4M421.5,29.9L695.2,679.6M458.3,19.2L666.3,704.5M495.7,10.8L630.6,718.1M533.5,4.8L592.5,718.6M571.7,1.2L556.5,706.1M610,0L526.9,682M648.3,1.2L507.3,649.3M686.5,4.8L500,611.9M724.3,10.8L506,574.2M761.7,19.2L524.4,540.9M798.5,29.9L553.2,515.8M834.6,42.8L588.8,502.1M869.7,58.1L626.9,501.3M903.9,75.5L663,513.6M936.9,95L692.7,537.5M968.5,116.5L712.5,570.1M998.8,140L720,607.5M1027.6,165.3L714.2,645.2M1054.7,192.4L695.9,678.7M1080,221.2L667.3,703.9M1103.5,251.5L631.8,717.8M1125,283.1L593.7,718.8M1144.5,316.1L557.6,706.7M1161.9,350.3L527.7,683M1177.2,385.4L507.7,650.5M1190.1,421.5L500,613.1M1200.8,458.3L505.6,575.4M1209.2,495.7L523.7,541.8M1215.2,533.5L552.1,516.5M1218.8,571.7L587.5,502.3M1220,610L625.7,501.1M1218.8,648.3L661.9,513M1215.2,686.5L691.9,536.6M1209.2,724.3L712,568.9M1200.8,761.7L719.9,606.2M1190.1,798.5L714.6,644M1177.2,834.6L696.7,677.7M1161.9,869.7L668.4,703.2M1144.5,903.9L633.1,717.6M1125,936.9L595,719M1103.5,968.5L558.7,707.3M1080,998.8L528.5,683.9M1054.7,1027.6L508.2,651.7M1027.6,1054.7L500.1,614.4M998.8,1080L505.2,576.6M968.5,1103.5L522.9,542.8M936.9,1125L551.1,517.1M903.9,1144.5L586.3,502.6M869.7,1161.9L624.4,500.9M834.6,1177.2L660.8,512.4M798.5,1190.1L691,535.6M761.7,1200.8L711.6,567.8M724.3,1209.2L719.9,605M686.5,1215.2L715,642.8M648.3,1218.8L697.5,676.7M610,1220L669.5,702.5M571.7,1218.8L634.3,717.3M533.5,1215.2L596.2,719.1M495.7,1209.2L559.8,707.9M458.3,1200.8L529.4,684.8M421.5,1190.1L508.7,652.8M385.4,1177.2L500.1,615.7M350.3,1161.9L504.8,577.8M316.1,1144.5L522.1,543.8M283.1,1125L550,517.8M251.5,1103.5L585.1,502.9M221.2,1080L623.2,500.8M192.4,1054.7L659.7,511.8M165.3,1027.6L690.2,534.7M140,998.8L711.1,566.6M116.5,968.5L719.8,603.7M95,936.9L715.4,641.6M75.5,903.9L698.2,675.7M58.1,869.7L670.5,701.9M42.8,834.6L635.5,717M29.9,798.5L597.5,719.3M19.2,761.7L560.9,708.4M10.8,724.3L530.2,685.8M4.8,686.5L509.2,654M1.2,648.3L500.2,616.9M0,610L504.5,579M1.2,571.7L521.4,544.8M4.8,533.5L549,518.5M10.8,495.7L583.9,503.2M19.2,458.3L621.9,500.6M29.9,421.5L658.5,511.3M42.8,385.4L689.3,533.8M58.1,350.3L710.6,565.5M75.5,316.1L719.7,602.5M95,283.1L715.7,640.4M116.5,251.5L699,674.7M140,221.2L671.6,701.2M165.3,192.4L636.7,716.7M192.4,165.3L598.7,719.4M221.2,140L562,709M251.5,116.5L531.1,686.7M283.1,95L509.7,655.1M316.1,75.5L500.3,618.2M350.3,58.1L504.1,580.2M385.4,42.8L520.6,545.9M421.5,29.9L547.9,519.2M458.3,19.2L582.6,503.5M495.7,10.8L620.7,500.5M533.5,4.8L657.4,510.7M571.7,1.2L688.4,532.9M610,0L710.1,564.3M648.3,1.2L719.6,601.2M686.5,4.8L716.1,639.2M724.3,10.8L699.7,673.6M761.7,19.2L672.6,700.4M798.5,29.9L638,716.4M834.6,42.8L600,719.5M869.7,58.1L563.2,709.5M903.9,75.5L532,687.6M936.9,95L510.2,656.3M968.5,116.5L500.4,619.4M998.8,140L503.8,581.4M1027.6,165.3L519.9,546.9M1054.7,192.4L546.9,519.9M1080,221.2L581.4,503.8M1103.5,251.5L619.4,500.4M1125,283.1L656.3,510.2M1144.5,316.1L687.6,532M1161.9,350.3L709.5,563.2M1177.2,385.4L719.5,600M1190.1,421.5L716.4,638M1200.8,458.3L700.4,672.6M1209.2,495.7L673.6,699.7M1215.2,533.5L639.2,716.1M1218.8,571.7L601.2,719.6M1220,610L564.3,710.1M1218.8,648.3L532.9,688.4M1215.2,686.5L510.7,657.4M1209.2,724.3L500.5,620.7M1200.8,761.7L503.5,582.6M1190.1,798.5L519.2,547.9M1177.2,834.6L545.9,520.6M1161.9,869.7L580.2,504.1M1144.5,903.9L618.2,500.3M1125,936.9L655.1,509.7M1103.5,968.5L686.7,531.1M1080,998.8L709,562M1054.7,1027.6L719.4,598.7M1027.6,1054.7L716.7,636.7M998.8,1080L701.2,671.6M968.5,1103.5L674.7,699M936.9,1125L640.4,715.7M903.9,1144.5L602.5,719.7M869.7,1161.9L565.5,710.6M834.6,1177.2L533.8,689.3M798.5,1190.1L511.3,658.5M761.7,1200.8L500.6,621.9M724.3,1209.2L503.2,583.9M686.5,1215.2L518.5,549M648.3,1218.8L544.8,521.4M610,1220L579,504.5M571.7,1218.8L616.9,500.2M533.5,1215.2L654,509.2M495.7,1209.2L685.8,530.2M458.3,1200.8L708.4,560.9M421.5,1190.1L719.3,597.5M385.4,1177.2L717,635.5M350.3,1161.9L701.9,670.5M316.1,1144.5L675.7,698.2M283.1,1125L641.6,715.4M251.5,1103.5L603.7,719.8M221.2,1080L566.6,711.1M192.4,1054.7L534.7,690.2M165.3,1027.6L511.8,659.7M140,998.8L500.8,623.2M116.5,968.5L502.9,585.1M95,936.9L517.8,550M75.5,903.9L543.8,522.1M58.1,869.7L577.8,504.8M42.8,834.6L615.7,500.1M29.9,798.5L652.8,508.7M19.2,761.7L684.8,529.4M10.8,724.3L707.9,559.8M4.8,686.5L719.1,596.2M1.2,648.3L717.3,634.3M0,610L702.5,669.5M1.2,571.7L676.7,697.5M4.8,533.5L642.8,715M10.8,495.7L605,719.9M19.2,458.3L567.8,711.6M29.9,421.5L535.6,691M42.8,385.4L512.4,660.8M58.1,350.3L500.9,624.4M75.5,316.1L502.6,586.3M95,283.1L517.1,551.1M116.5,251.5L542.8,522.9M140,221.2L576.6,505.2M165.3,192.4L614.4,500.1M192.4,165.3L651.7,508.2M221.2,140L683.9,528.5M251.5,116.5L707.3,558.7M283.1,95L719,595M316.1,75.5L717.6,633.1M350.3,58.1L703.2,668.4M385.4,42.8L677.7,696.7M421.5,29.9L644,714.6M458.3,19.2L606.2,719.9M495.7,10.8L568.9,712M533.5,4.8L536.6,691.9M571.7,1.2L513,661.9M610,0L501.1,625.7M648.3,1.2L502.3,587.5M686.5,4.8L516.5,552.1M724.3,10.8L541.8,523.7M761.7,19.2L575.4,505.6M798.5,29.9L613.1,500M834.6,42.8L650.5,507.7M869.7,58.1L683,527.7M903.9,75.5L706.7,557.6M936.9,95L718.8,593.7M968.5,116.5L717.8,631.8M998.8,140L703.9,667.3M1027.6,165.3L678.7,695.9M1054.7,192.4L645.2,714.2M1080,221.2L607.5,720M1103.5,251.5L570.1,712.5M1125,283.1L537.5,692.7M1144.5,316.1L513.6,663M1161.9,350.3L501.3,626.9M1177.2,385.4L502.1,588.8M1190.1,421.5L515.8,553.2M1200.8,458.3L540.9,524.4M1209.2,495.7L574.2,506M1215.2,533.5L611.9,500M1218.8,571.7L649.3,507.3M1220,610L682,526.9M1218.8,648.3L706.1,556.5M1215.2,686.5L718.6,592.5M1209.2,724.3L718.1,630.6M1200.8,761.7L704.5,666.3M1190.1,798.5L679.6,695.2M1177.2,834.6L646.4,713.8M1161.9,869.7L608.7,720M1144.5,903.9L571.3,713M1125,936.9L538.4,693.5M1103.5,968.5L514.2,664.1M1080,998.8L501.5,628.1M1054.7,1027.6L501.8,590M1027.6,1054.7L515.2,554.3M998.8,1080L539.9,525.2M968.5,1103.5L573,506.4M936.9,1125L610.6,500M903.9,1144.5L648.1,506.8M869.7,1161.9L681.1,526.1M834.6,1177.2L705.5,555.4M798.5,1190.1L718.4,591.2M761.7,1200.8L718.3,629.4M724.3,1209.2L705.2,665.2M686.5,1215.2L680.6,694.4M648.3,1218.8L647.6,713.4M610,1220L610,720M571.7,1218.8L572.4,713.4M533.5,1215.2L539.4,694.4M495.7,1209.2L514.8,665.2M458.3,1200.8L501.7,629.4M421.5,1190.1L501.6,591.2M385.4,1177.2L514.5,555.4M350.3,1161.9L538.9,526.1M316.1,1144.5L571.9,506.8M283.1,1125L609.4,500M251.5,1103.5L647,506.4M221.2,1080L680.1,525.2M192.4,1054.7L704.8,554.3M165.3,1027.6L718.2,590M140,998.8L718.5,628.1M116.5,968.5L705.8,664.1M95,936.9L681.6,693.5M75.5,903.9L648.7,713M58.1,869.7L611.3,720M42.8,834.6L573.6,713.8M29.9,798.5L540.4,695.2M19.2,761.7L515.5,666.3M10.8,724.3L501.9,630.6M4.8,686.5L501.4,592.5M1.2,648.3L513.9,556.5M0,610L538,526.9M1.2,571.7L570.7,507.3M4.8,533.5L608.1,500M10.8,495.7L645.8,506M19.2,458.3L679.1,524.4M29.9,421.5L704.2,553.2M42.8,385.4L717.9,588.8M58.1,350.3L718.7,626.9M75.5,316.1L706.4,663M95,283.1L682.5,692.7M116.5,251.5L649.9,712.5M140,221.2L612.5,720M165.3,192.4L574.8,714.2M192.4,165.3L541.3,695.9M221.2,140L516.1,667.3M251.5,116.5L502.2,631.8M283.1,95L501.2,593.7M316.1,75.5L513.3,557.6M350.3,58.1L537,527.7M385.4,42.8L569.5,507.7M421.5,29.9L606.9,500M458.3,19.2L644.6,505.6M495.7,10.8L678.2,523.7M533.5,4.8L703.5,552.1M571.7,1.2L717.7,587.5M610,0L718.9,625.7M648.3,1.2L707,661.9M686.5,4.8L683.4,691.9M724.3,10.8L651.1,712M761.7,19.2L613.8,719.9M798.5,29.9L576,714.6M834.6,42.8L542.3,696.7M869.7,58.1L516.8,668.4M903.9,75.5L502.4,633.1M936.9,95L501,595M968.5,116.5L512.7,558.7M998.8,140L536.1,528.5M1027.6,165.3L568.3,508.2M1054.7,192.4L605.6,500.1M1080,221.2L643.4,505.2M1103.5,251.5L677.2,522.9M1125,283.1L702.9,551.1M1144.5,316.1L717.4,586.3M1161.9,350.3L719.1,624.4M1177.2,385.4L707.6,660.8M1190.1,421.5L684.4,691M1200.8,458.3L652.2,711.6M1209.2,495.7L615,719.9M1215.2,533.5L577.2,715M1218.8,571.7L543.3,697.5M1220,610L517.5,669.5M1218.8,648.3L502.7,634.3M1215.2,686.5L500.9,596.2M1209.2,724.3L512.1,559.8M1200.8,761.7L535.2,529.4M1190.1,798.5L567.2,508.7M1177.2,834.6L604.3,500.1M1161.9,869.7L642.2,504.8M1144.5,903.9L676.2,522.1M1125,936.9L702.2,550M1103.5,968.5L717.1,585.1M1080,998.8L719.2,623.2M1054.7,1027.6L708.2,659.7M1027.6,1054.7L685.3,690.2M998.8,1080L653.4,711.1M968.5,1103.5L616.3,719.8M936.9,1125L578.4,715.4M903.9,1144.5L544.3,698.2M869.7,1161.9L518.1,670.5M834.6,1177.2L503,635.5M798.5,1190.1L500.7,597.5M761.7,1200.8L511.6,560.9M724.3,1209.2L534.2,530.2M686.5,1215.2L566,509.2M648.3,1218.8L603.1,500.2M610,1220L641,504.5M571.7,1218.8L675.2,521.4M533.5,1215.2L701.5,549M495.7,1209.2L716.8,583.9M458.3,1200.8L719.4,621.9M421.5,1190.1L708.7,658.5M385.4,1177.2L686.2,689.3M350.3,1161.9L654.5,710.6M316.1,1144.5L617.5,719.7M283.1,1125L579.6,715.7M251.5,1103.5L545.3,699M221.2,1080L518.8,671.6M192.4,1054.7L503.3,636.7M165.3,1027.6L500.6,598.7M140,998.8L511,562M116.5,968.5L533.3,531.1M95,936.9L564.9,509.7M75.5,903.9L601.8,500.3M58.1,869.7L639.8,504.1M42.8,834.6L674.1,520.6M29.9,798.5L700.8,547.9M19.2,761.7L716.5,582.6M10.8,724.3L719.5,620.7M4.8,686.5L709.3,657.4M1.2,648.3L687.1,688.4M0,610L655.7,710.1M1.2,571.7L618.8,719.6M4.8,533.5L580.8,716.1M10.8,495.7L546.4,699.7M19.2,458.3L519.6,672.6M29.9,421.5L503.6,638M42.8,385.4L500.5,600M58.1,350.3L510.5,563.2M75.5,316.1L532.4,532M95,283.1L563.7,510.2M116.5,251.5L600.6,500.4M140,221.2L638.6,503.8M165.3,192.4L673.1,519.9M192.4,165.3L700.1,546.9M221.2,140L716.2,581.4M251.5,116.5L719.6,619.4M283.1,95L709.8,656.3M316.1,75.5L688,687.6M350.3,58.1L656.8,709.5M385.4,42.8L620,719.5M421.5,29.9L582,716.4M458.3,19.2L547.4,700.4M495.7,10.8L520.3,673.6M533.5,4.8L503.9,639.2M571.7,1.2L500.4,601.2M610,0L509.9,564.3M648.3,1.2L531.6,532.9M686.5,4.8L562.6,510.7M724.3,10.8L599.3,500.5M761.7,19.2L637.4,503.5M798.5,29.9L672.1,519.2M834.6,42.8L699.4,545.9M869.7,58.1L715.9,580.2M903.9,75.5L719.7,618.2M936.9,95L710.3,655.1M968.5,116.5L688.9,686.7M998.8,140L658,709M1027.6,165.3L621.3,719.4M1054.7,192.4L583.3,716.7M1080,221.2L548.4,701.2M1103.5,251.5L521,674.7M1125,283.1L504.3,640.4M1144.5,316.1L500.3,602.5M1161.9,350.3L509.4,565.5M1177.2,385.4L530.7,533.8M1190.1,421.5L561.5,511.3M1200.8,458.3L598.1,500.6M1209.2,495.7L636.1,503.2M1215.2,533.5L671,518.5M1218.8,571.7L698.6,544.8M1220,610L715.5,579M1218.8,648.3L719.8,616.9M1215.2,686.5L710.8,654M1209.2,724.3L689.8,685.8M1200.8,761.7L659.1,708.4M1190.1,798.5L622.5,719.3M1177.2,834.6L584.5,717M1161.9,869.7L549.5,701.9M1144.5,903.9L521.8,675.7M1125,936.9L504.6,641.6M1103.5,968.5L500.2,603.7M1080,998.8L508.9,566.6M1054.7,1027.6L529.8,534.7M1027.6,1054.7L560.3,511.8M998.8,1080L596.8,500.8M968.5,1103.5L634.9,502.9M936.9,1125L670,517.8M903.9,1144.5L697.9,543.8M869.7,1161.9L715.2,577.8M834.6,1177.2L719.9,615.7M798.5,1190.1L711.3,652.8M761.7,1200.8L690.6,684.8M724.3,1209.2L660.2,707.9M686.5,1215.2L623.8,719.1M648.3,1218.8L585.7,717.3M610,1220L550.5,702.5M571.7,1218.8L522.5,676.7M533.5,1215.2L505,642.8M495.7,1209.2L500.1,605M458.3,1200.8L508.4,567.8M421.5,1190.1L529,535.6M385.4,1177.2L559.2,512.4M350.3,1161.9L595.6,500.9M316.1,1144.5L633.7,502.6M283.1,1125L668.9,517.1M251.5,1103.5L697.1,542.8M221.2,1080L714.8,576.6M192.4,1054.7L719.9,614.4M165.3,1027.6L711.8,651.7M140,998.8L691.5,683.9M116.5,968.5L661.3,707.3M95,936.9L625,719M75.5,903.9L586.9,717.6M58.1,869.7L551.6,703.2M42.8,834.6L523.3,677.7M29.9,798.5L505.4,644M19.2,761.7L500.1,606.2M10.8,724.3L508,568.9M4.8,686.5L528.1,536.6M1.2,648.3L558.1,513M0,610L594.3,501.1M1.2,571.7L632.5,502.3M4.8,533.5L667.9,516.5M10.8,495.7L696.3,541.8M19.2,458.3L714.4,575.4M29.9,421.5L720,613.1M42.8,385.4L712.3,650.5M58.1,350.3L692.3,683M75.5,316.1L662.4,706.7M95,283.1L626.3,718.8M116.5,251.5L588.2,717.8M140,221.2L552.7,703.9M165.3,192.4L524.1,678.7M192.4,165.3L505.8,645.2M221.2,140L500,607.5M251.5,116.5L507.5,570.1M283.1,95L527.3,537.5M316.1,75.5L557,513.6M350.3,58.1L593.1,501.3M385.4,42.8L631.2,502.1M421.5,29.9L666.8,515.8M458.3,19.2L695.6,540.9M495.7,10.8L714,574.2M533.5,4.8L720,611.9M571.7,1.2L712.7,649.3M610,0L693.1,682M648.3,1.2L663.5,706.1M686.5,4.8L627.5,718.6M724.3,10.8L589.4,718.1M761.7,19.2L553.7,704.5M798.5,29.9L524.8,679.6M834.6,42.8L506.2,646.4M869.7,58.1L500,608.7M903.9,75.5L507,571.3M936.9,95L526.5,538.4M968.5,116.5L555.9,514.2M998.8,140L591.9,501.5M1027.6,165.3L630,501.8M1054.7,192.4L665.7,515.2M1080,221.2L694.8,539.9M1103.5,251.5L713.6,573M1125,283.1L720,610.6M1144.5,316.1L713.2,648.1M1161.9,350.3L693.9,681.1M1177.2,385.4L664.6,705.5M1190.1,421.5L628.8,718.4M1200.8,458.3L590.6,718.3M1209.2,495.7L554.8,705.2M1215.2,533.5L525.6,680.6M1218.8,571.7L506.6,647.6M1220,610L500,610M1218.8,648.3L506.6,572.4M1215.2,686.5L525.6,539.4M1209.2,724.3L554.8,514.8M1200.8,761.7L590.6,501.7M1190.1,798.5L628.8,501.6M1177.2,834.6L664.6,514.5M1161.9,869.7L693.9,538.9M1144.5,903.9L713.2,571.9M1125,936.9L720,609.4M1103.5,968.5L713.6,647M1080,998.8L694.8,680.1M1054.7,1027.6L665.7,704.8M1027.6,1054.7L630,718.2M998.8,1080L591.9,718.5M968.5,1103.5L555.9,705.8M936.9,1125L526.5,681.6M903.9,1144.5L507,648.7M869.7,1161.9L500,611.3M834.6,1177.2L506.2,573.6M798.5,1190.1L524.8,540.4M761.7,1200.8L553.7,515.5M724.3,1209.2L589.4,501.9M686.5,1215.2L627.5,501.4M648.3,1218.8L663.5,513.9M610,1220L693.1,538M571.7,1218.8L712.7,570.7M533.5,1215.2L720,608.1M495.7,1209.2L714,645.8M458.3,1200.8L695.6,679.1M421.5,1190.1L666.8,704.2M385.4,1177.2L631.2,717.9M350.3,1161.9L593.1,718.7M316.1,1144.5L557,706.4M283.1,1125L527.3,682.5M251.5,1103.5L507.5,649.9M221.2,1080L500,612.5M192.4,1054.7L505.8,574.8M165.3,1027.6L524.1,541.3M140,998.8L552.7,516.1M116.5,968.5L588.2,502.2M95,936.9L626.3,501.2M75.5,903.9L662.4,513.3M58.1,869.7L692.3,537M42.8,834.6L712.3,569.5M29.9,798.5L720,606.9M19.2,761.7L714.4,644.6M10.8,724.3L696.3,678.2M4.8,686.5L667.9,703.5M1.2,648.3L632.5,717.7M0,610L594.3,718.9M1.2,571.7L558.1,707M4.8,533.5L528.1,683.4M10.8,495.7L508,651.1M19.2,458.3L500.1,613.8M29.9,421.5L505.4,576M42.8,385.4L523.3,542.3M58.1,350.3L551.6,516.8M75.5,316.1L586.9,502.4M95,283.1L625,501M116.5,251.5L661.3,512.7M140,221.2L691.5,536.1M165.3,192.4L711.8,568.3M192.4,165.3L719.9,605.6M221.2,140L714.8,643.4M251.5,116.5L697.1,677.2M283.1,95L668.9,702.9M316.1,75.5L633.7,717.4M350.3,58.1L595.6,719.1M385.4,42.8L559.2,707.6M421.5,29.9L529,684.4M458.3,19.2L508.4,652.2M495.7,10.8L500.1,615M533.5,4.8L505,577.2M571.7,1.2L522.5,543.3M610,0L550.5,517.5M648.3,1.2L585.7,502.7M686.5,4.8L623.8,500.9M724.3,10.8L660.2,512.1M761.7,19.2L690.6,535.2M798.5,29.9L711.3,567.2M834.6,42.8L719.9,604.3M869.7,58.1L715.2,642.2M903.9,75.5L697.9,676.2M936.9,95L670,702.2M968.5,116.5L634.9,717.1M998.8,140L596.8,719.2M1027.6,165.3L560.3,708.2M1054.7,192.4L529.8,685.3M1080,221.2L508.9,653.4M1103.5,251.5L500.2,616.3M1125,283.1L504.6,578.4M1144.5,316.1L521.8,544.3M1161.9,350.3L549.5,518.1M1177.2,385.4L584.5,503M1190.1,421.5L622.5,500.7M1200.8,458.3L659.1,511.6M1209.2,495.7L689.8,534.2M1215.2,533.5L710.8,566M1218.8,571.7L719.8,603.1M1220,610L715.5,641M1218.8,648.3L698.6,675.2M1215.2,686.5L671,701.5M1209.2,724.3L636.1,716.8M1200.8,761.7L598.1,719.4M1190.1,798.5L561.5,708.7M1177.2,834.6L530.7,686.2M1161.9,869.7L509.4,654.5M1144.5,903.9L500.3,617.5M1125,936.9L504.3,579.6M1103.5,968.5L521,545.3M1080,998.8L548.4,518.8M1054.7,1027.6L583.3,503.3M1027.6,1054.7L621.3,500.6M998.8,1080L658,511M968.5,1103.5L688.9,533.3M936.9,1125L710.3,564.9M903.9,1144.5L719.7,601.8M869.7,1161.9L715.9,639.8M834.6,1177.2L699.4,674.1M798.5,1190.1L672.1,700.8M761.7,1200.8L637.4,716.5M724.3,1209.2L599.3,719.5M686.5,1215.2L562.6,709.3M648.3,1218.8L531.6,687.1M610,1220L509.9,655.7M571.7,1218.8L500.4,618.8M533.5,1215.2L503.9,580.8M495.7,1209.2L520.3,546.4M458.3,1200.8L547.4,519.6M421.5,1190.1L582,503.6M385.4,1177.2L620,500.5M350.3,1161.9L656.8,510.5M316.1,1144.5L688,532.4M283.1,1125L709.8,563.7M251.5,1103.5L719.6,600.6M221.2,1080L716.2,638.6M192.4,1054.7L700.1,673.1M165.3,1027.6L673.1,700.1M140,998.8L638.6,716.2M116.5,968.5L600.6,719.6M95,936.9L563.7,709.8M75.5,903.9L532.4,688M58.1,869.7L510.5,656.8M42.8,834.6L500.5,620M29.9,798.5L503.6,582M19.2,761.7L519.6,547.4M10.8,724.3L546.4,520.3M4.8,686.5L580.8,503.9M1.2,648.3L618.8,500.4M0,610L655.7,509.9M1.2,571.7L687.1,531.6M4.8,533.5L709.3,562.6M10.8,495.7L719.5,599.3M19.2,458.3L716.5,637.4M29.9,421.5L700.8,672.1M42.8,385.4L674.1,699.4M58.1,350.3L639.8,715.9M75.5,316.1L601.8,719.7M95,283.1L564.9,710.3M116.5,251.5L533.3,688.9M140,221.2L511,658M165.3,192.4L500.6,621.3M192.4,165.3L503.3,583.3M221.2,140L518.8,548.4M251.5,116.5L545.3,521M283.1,95L579.6,504.3M316.1,75.5L617.5,500.3M350.3,58.1L654.5,509.4M385.4,42.8L686.2,530.7M421.5,29.9L708.7,561.5M458.3,19.2L719.4,598.1M495.7,10.8L716.8,636.1M533.5,4.8L701.5,671M571.7,1.2L675.2,698.6M610,0L641,715.5M648.3,1.2L603.1,719.8M686.5,4.8L566,710.8M724.3,10.8L534.2,689.8M761.7,19.2L511.6,659.1M798.5,29.9L500.7,622.5M834.6,42.8L503,584.5M869.7,58.1L518.1,549.5M903.9,75.5L544.3,521.8M936.9,95L578.4,504.6M968.5,116.5L616.3,500.2M998.8,140L653.4,508.9M1027.6,165.3L685.3,529.8M1054.7,192.4L708.2,560.3M1080,221.2L719.2,596.8M1103.5,251.5L717.1,634.9M1125,283.1L702.2,670M1144.5,316.1L676.2,697.9M1161.9,350.3L642.2,715.2M1177.2,385.4L604.3,719.9M1190.1,421.5L567.2,711.3M1200.8,458.3L535.2,690.6M1209.2,495.7L512.1,660.2M1215.2,533.5L500.9,623.8M1218.8,571.7L502.7,585.7M1220,610L517.5,550.5M1218.8,648.3L543.3,522.5M1215.2,686.5L577.2,505M1209.2,724.3L615,500.1M1200.8,761.7L652.2,508.4M1190.1,798.5L684.4,529M1177.2,834.6L707.6,559.2M1161.9,869.7L719.1,595.6M1144.5,903.9L717.4,633.7M1125,936.9L702.9,668.9M1103.5,968.5L677.2,697.1M1080,998.8L643.4,714.8M1054.7,1027.6L605.6,719.9M1027.6,1054.7L568.3,711.8M998.8,1080L536.1,691.5M968.5,1103.5L512.7,661.3M936.9,1125L501,625M903.9,1144.5L502.4,586.9M869.7,1161.9L516.8,551.6M834.6,1177.2L542.3,523.3M798.5,1190.1L576,505.4M761.7,1200.8L613.8,500.1M724.3,1209.2L651.1,508M686.5,1215.2L683.4,528.1M648.3,1218.8L707,558.1M610,1220L718.9,594.3M571.7,1218.8L717.7,632.5M533.5,1215.2L703.5,667.9M495.7,1209.2L678.2,696.3M458.3,1200.8L644.6,714.4M421.5,1190.1L606.9,720M385.4,1177.2L569.5,712.3M350.3,1161.9L537,692.3M316.1,1144.5L513.3,662.4M283.1,1125L501.2,626.3M251.5,1103.5L502.2,588.2M221.2,1080L516.1,552.7M192.4,1054.7L541.3,524.1M165.3,1027.6L574.8,505.8M140,998.8L612.5,500M116.5,968.5L649.9,507.5M95,936.9L682.5,527.3M75.5,903.9L706.4,557M58.1,869.7L718.7,593.1M42.8,834.6L717.9,631.2M29.9,798.5L704.2,666.8M19.2,761.7L679.1,695.6M10.8,724.3L645.8,714M4.8,686.5L608.1,720M1.2,648.3L570.7,712.7M0,610L538,693.1M1.2,571.7L513.9,663.5M4.8,533.5L501.4,627.5M10.8,495.7L501.9,589.4M19.2,458.3L515.5,553.7M29.9,421.5L540.4,524.8M42.8,385.4L573.6,506.2M58.1,350.3L611.3,500M75.5,316.1L648.7,507M95,283.1L681.6,526.5M116.5,251.5L705.8,555.9M140,221.2L718.5,591.9M165.3,192.4L718.2,630M192.4,165.3L704.8,665.7M221.2,140L680.1,694.8M251.5,116.5L647,713.6M283.1,95L609.4,720M316.1,75.5L571.9,713.2M350.3,58.1L538.9,693.9M385.4,42.8L514.5,664.6M421.5,29.9L501.6,628.8M458.3,19.2L501.7,590.6M495.7,10.8L514.8,554.8M533.5,4.8L539.4,525.6M571.7,1.2L572.4,506.6M610,0L610,500M648.3,1.2L647.6,506.6M686.5,4.8L680.6,525.6M724.3,10.8L705.2,554.8"/>
    </g>
  </g>
  
  <a xlink:href="http://steamcoded.org" _target="blank">
    <g id="credits" transform="translate(618.25,734.3) scale(0.11)" style="text-anchor:middle;font-size:40px;font-family:Arial;fill:black;stroke:none;">
      <text x="1" y="1" style="font-weight:bold;font-style:italic;fill:#333333;stroke:#333333;stroke-width:0.5px;">STEAM<tspan style="font-variant:small-caps;">coded.org</tspan></text>
      <text x="0" y="0" style="font-weight:bold;font-style:italic;"><tspan style="fill:red;">S</tspan><tspan style="fill:orange;">T</tspan><tspan style="fill:lime;">E</tspan><tspan style="fill:#5555ff;">A</tspan><tspan style="fill:purple;">M</tspan><tspan style="fill:blue;font-variant:small-caps;">coded.org</tspan></text>
    </g>
  </a>

</svg>