<?xml version="1.0" encoding="UTF-8"?>
<svg id="image" width="100%" height="100%" viewBox="0 0 279.5 279.5" xml:space="preserve" xmlns="http://www.w3.org/2000/svg" xmlns:xlink="http://www.w3.org/1999/xlink">
  
  <title>Concentric Circle Symmetry</title>

  <desc>
    Concentric Circle String Art Symmetry
    Connecting circle perimeter line segments
    
    Watch it being drawn at http://goo.gl/Gq8n7j
    then change parameters and watch again
    
    by Jay Nick
    August 18, 2015
    
    STEAMcoded.org
  </desc>
  
  <g id="title" transform="translate(139.75,6.5) scale(0.13)" style="text-anchor:middle;font-size:40px;font-family:Arial;fill:black;stroke:none;">
    <text x="0" y="0" style="font-weight:bold;fill:#333333;font-variant:small-caps;"><tspan style="fill:red;">Concentric</tspan><tspan style="fill:orange;"> Circle</tspan><tspan style="fill:green;"> String</tspan><tspan style="fill:navy;"> Art</tspan><tspan style="fill:purple;"> Symmetry</tspan></text>
  </g>

  <g id="art" style="fill:none;stroke:white;stroke-width:0.5px;" transform="translate(9.75,9.75)">
    <g id="clip" style="display:initial;">
      <circle id="c1" cx="130" cy="130" r="130" style="fill:navy;"/>
      <circle id="c2" cx="130" cy="130" r="80" style="fill:navy;"/>
      <path id="ls" style="stroke-width:0.15px;" d="M130,0L130,50M143.6,0.7L143.5,51.2M157,2.8L156.7,54.6M170.2,6.4L169.1,60.2M182.9,11.2L180.3,67.8M195,17.4L190.1,77.3M206.4,24.8L198.2,88.2M217,33.4L204.3,100.4M226.6,43L208.3,113.4M235.2,53.6L209.9,126.9M242.6,65L209.3,140.4M248.8,77.1L206.4,153.7M253.6,89.8L201.3,166.3M257.2,103L194.1,177.9M259.3,116.4L185.1,188M260,130L174.4,196.5M259.3,143.6L162.5,203.1M257.2,157L149.7,207.5M253.6,170.2L136.3,209.8M248.8,182.9L122.7,209.7M242.6,195L109.3,207.3M235.2,206.4L96.5,202.7M226.6,217L84.7,195.9M217,226.6L74.2,187.3M206.4,235.2L65.3,177M195,242.6L58.3,165.4M182.9,248.8L53.3,152.7M170.2,253.6L50.6,139.4M157,257.2L50.1,125.8M143.6,259.3L52,112.3M130,260L56.1,99.4M116.4,259.3L62.3,87.3M103,257.2L70.5,76.5M89.8,253.6L80.5,67.2M77.1,248.8L91.8,59.7M65,242.6L104.3,54.2M53.6,235.2L117.5,51M43,226.6L131,50M33.4,217L144.6,51.3M24.8,206.4L157.7,54.9M17.4,195L170,60.7M11.2,182.9L181.2,68.5M6.4,170.2L190.8,78M2.8,157L198.8,89.1M0.7,143.6L204.7,101.3M0,130L208.5,114.4M0.7,116.4L210,127.9M2.8,103L209.2,141.5M6.4,89.8L206.1,154.7M11.2,77.1L200.8,167.2M17.4,65L193.5,178.7M24.8,53.6L184.3,188.7M33.4,43L173.6,197.1M43,33.4L161.6,203.5M53.6,24.8L148.7,207.8M65,17.4L135.2,209.8M77.1,11.2L121.6,209.6M89.8,6.4L108.3,207M103,2.8L95.6,202.2M116.4,0.7L83.8,195.3M130,0L73.4,186.6M143.6,0.7L64.7,176.2M157,2.8L57.8,164.4M170.2,6.4L53,151.7M182.9,11.2L50.4,138.4M195,17.4L50.2,124.8M206.4,24.8L52.2,111.3M217,33.4L56.5,98.4M226.6,43L62.9,86.4M235.2,53.6L71.3,75.7M242.6,65L81.3,66.5M248.8,77.1L92.8,59.2M253.6,89.8L105.3,53.9M257.2,103L118.5,50.8M259.3,116.4L132.1,50M260,130L145.6,51.5M259.3,143.6L158.7,55.3M257.2,157L170.9,61.2M253.6,170.2L182,69.2M248.8,182.9L191.5,78.8M242.6,195L199.3,90M235.2,206.4L205.1,102.3M226.6,217L208.7,115.4M217,226.6L210,129M206.4,235.2L209,142.5M195,242.6L205.8,155.7M182.9,248.8L200.3,168.2M170.2,253.6L192.8,179.5M157,257.2L183.5,189.5M143.6,259.3L172.7,197.7M130,260L160.6,203.9M116.4,259.3L147.7,208M103,257.2L134.2,209.9M89.8,253.6L120.6,209.4M77.1,248.8L107.3,206.7M65,242.6L94.6,201.7M53.6,235.2L83,194.7M43,226.6L72.7,185.8M33.4,217L64.1,175.3M24.8,206.4L57.3,163.5M17.4,195L52.7,150.7M11.2,182.9L50.3,137.3M6.4,170.2L50.2,123.7M2.8,157L52.5,110.3M0.7,143.6L56.9,97.5M0,130L63.5,85.6M0.7,116.4L72,74.9M2.8,103L82.1,65.9M6.4,89.8L93.7,58.7M11.2,77.1L106.3,53.6M17.4,65L119.6,50.7M24.8,53.6L133.1,50.1M33.4,43L146.6,51.7M43,33.4L159.6,55.7M53.6,24.8L171.8,61.8M65,17.4L182.7,69.9M77.1,11.2L192.2,79.7M89.8,6.4L199.8,90.9M103,2.8L205.4,103.3M116.4,0.7L208.8,116.5M130,0L210,130M143.6,0.7L208.8,143.5M157,2.8L205.4,156.7M170.2,6.4L199.8,169.1M182.9,11.2L192.2,180.3M195,17.4L182.7,190.1M206.4,24.8L171.8,198.2M217,33.4L159.6,204.3M226.6,43L146.6,208.3M235.2,53.6L133.1,209.9M242.6,65L119.6,209.3M248.8,77.1L106.3,206.4M253.6,89.8L93.7,201.3M257.2,103L82.1,194.1M259.3,116.4L72,185.1M260,130L63.5,174.4M259.3,143.6L56.9,162.5M257.2,157L52.5,149.7M253.6,170.2L50.2,136.3M248.8,182.9L50.3,122.7M242.6,195L52.7,109.3M235.2,206.4L57.3,96.5M226.6,217L64.1,84.7M217,226.6L72.7,74.2M206.4,235.2L83,65.3M195,242.6L94.6,58.3M182.9,248.8L107.3,53.3M170.2,253.6L120.6,50.6M157,257.2L134.2,50.1M143.6,259.3L147.7,52M130,260L160.6,56.1M116.4,259.3L172.7,62.3M103,257.2L183.5,70.5M89.8,253.6L192.8,80.5M77.1,248.8L200.3,91.8M65,242.6L205.8,104.3M53.6,235.2L209,117.5M43,226.6L210,131M33.4,217L208.7,144.6M24.8,206.4L205.1,157.7M17.4,195L199.3,170M11.2,182.9L191.5,181.2M6.4,170.2L182,190.8M2.8,157L170.9,198.8M0.7,143.6L158.7,204.7M0,130L145.6,208.5M0.7,116.4L132.1,210M2.8,103L118.5,209.2M6.4,89.8L105.3,206.1M11.2,77.1L92.8,200.8M17.4,65L81.3,193.5M24.8,53.6L71.3,184.3M33.4,43L62.9,173.6M43,33.4L56.5,161.6M53.6,24.8L52.2,148.7M65,17.4L50.2,135.2M77.1,11.2L50.4,121.6M89.8,6.4L53,108.3M103,2.8L57.8,95.6M116.4,0.7L64.7,83.8M130,0L73.4,73.4M143.6,0.7L83.8,64.7M157,2.8L95.6,57.8M170.2,6.4L108.3,53M182.9,11.2L121.6,50.4M195,17.4L135.2,50.2M206.4,24.8L148.7,52.2M217,33.4L161.6,56.5M226.6,43L173.6,62.9M235.2,53.6L184.3,71.3M242.6,65L193.5,81.3M248.8,77.1L200.8,92.8M253.6,89.8L206.1,105.3M257.2,103L209.2,118.5M259.3,116.4L210,132.1M260,130L208.5,145.6M259.3,143.6L204.7,158.7M257.2,157L198.8,170.9M253.6,170.2L190.8,182M248.8,182.9L181.2,191.5M242.6,195L170,199.3M235.2,206.4L157.7,205.1M226.6,217L144.6,208.7M217,226.6L131,210M206.4,235.2L117.5,209M195,242.6L104.3,205.8M182.9,248.8L91.8,200.3M170.2,253.6L80.5,192.8M157,257.2L70.5,183.5M143.6,259.3L62.3,172.7M130,260L56.1,160.6M116.4,259.3L52,147.7M103,257.2L50.1,134.2M89.8,253.6L50.6,120.6M77.1,248.8L53.3,107.3M65,242.6L58.3,94.6M53.6,235.2L65.3,83M43,226.6L74.2,72.7M33.4,217L84.7,64.1M24.8,206.4L96.5,57.3M17.4,195L109.3,52.7M11.2,182.9L122.7,50.3M6.4,170.2L136.3,50.2M2.8,157L149.7,52.5M0.7,143.6L162.5,56.9M0,130L174.4,63.5M0.7,116.4L185.1,72M2.8,103L194.1,82.1M6.4,89.8L201.3,93.7M11.2,77.1L206.4,106.3M17.4,65L209.3,119.6M24.8,53.6L209.9,133.1M33.4,43L208.3,146.6M43,33.4L204.3,159.6M53.6,24.8L198.2,171.8M65,17.4L190.1,182.7M77.1,11.2L180.3,192.2M89.8,6.4L169.1,199.8M103,2.8L156.7,205.4M116.4,0.7L143.5,208.8M130,0L130,210M143.6,0.7L116.5,208.8M157,2.8L103.3,205.4M170.2,6.4L90.9,199.8M182.9,11.2L79.7,192.2M195,17.4L69.9,182.7M206.4,24.8L61.8,171.8M217,33.4L55.7,159.6M226.6,43L51.7,146.6M235.2,53.6L50.1,133.1M242.6,65L50.7,119.6M248.8,77.1L53.6,106.3M253.6,89.8L58.7,93.7M257.2,103L65.9,82.1M259.3,116.4L74.9,72M260,130L85.6,63.5M259.3,143.6L97.5,56.9M257.2,157L110.3,52.5M253.6,170.2L123.7,50.2M248.8,182.9L137.3,50.3M242.6,195L150.7,52.7M235.2,206.4L163.5,57.3M226.6,217L175.3,64.1M217,226.6L185.8,72.7M206.4,235.2L194.7,83M195,242.6L201.7,94.6M182.9,248.8L206.7,107.3M170.2,253.6L209.4,120.6M157,257.2L209.9,134.2M143.6,259.3L208,147.7M130,260L203.9,160.6M116.4,259.3L197.7,172.7M103,257.2L189.5,183.5M89.8,253.6L179.5,192.8M77.1,248.8L168.2,200.3M65,242.6L155.7,205.8M53.6,235.2L142.5,209M43,226.6L129,210M33.4,217L115.4,208.7M24.8,206.4L102.3,205.1M17.4,195L90,199.3M11.2,182.9L78.8,191.5M6.4,170.2L69.2,182M2.8,157L61.2,170.9M0.7,143.6L55.3,158.7M0,130L51.5,145.6M0.7,116.4L50,132.1M2.8,103L50.8,118.5M6.4,89.8L53.9,105.3M11.2,77.1L59.2,92.8M17.4,65L66.5,81.3M24.8,53.6L75.7,71.3M33.4,43L86.4,62.9M43,33.4L98.4,56.5M53.6,24.8L111.3,52.2M65,17.4L124.8,50.2M77.1,11.2L138.4,50.4M89.8,6.4L151.7,53M103,2.8L164.4,57.8M116.4,0.7L176.2,64.7M130,0L186.6,73.4M143.6,0.7L195.3,83.8M157,2.8L202.2,95.6M170.2,6.4L207,108.3M182.9,11.2L209.6,121.6M195,17.4L209.8,135.2M206.4,24.8L207.8,148.7M217,33.4L203.5,161.6M226.6,43L197.1,173.6M235.2,53.6L188.7,184.3M242.6,65L178.7,193.5M248.8,77.1L167.2,200.8M253.6,89.8L154.7,206.1M257.2,103L141.5,209.2M259.3,116.4L127.9,210M260,130L114.4,208.5M259.3,143.6L101.3,204.7M257.2,157L89.1,198.8M253.6,170.2L78,190.8M248.8,182.9L68.5,181.2M242.6,195L60.7,170M235.2,206.4L54.9,157.7M226.6,217L51.3,144.6M217,226.6L50,131M206.4,235.2L51,117.5M195,242.6L54.2,104.3M182.9,248.8L59.7,91.8M170.2,253.6L67.2,80.5M157,257.2L76.5,70.5M143.6,259.3L87.3,62.3M130,260L99.4,56.1M116.4,259.3L112.3,52M103,257.2L125.8,50.1M89.8,253.6L139.4,50.6M77.1,248.8L152.7,53.3M65,242.6L165.4,58.3M53.6,235.2L177,65.3M43,226.6L187.3,74.2M33.4,217L195.9,84.7M24.8,206.4L202.7,96.5M17.4,195L207.3,109.3M11.2,182.9L209.7,122.7M6.4,170.2L209.8,136.3M2.8,157L207.5,149.7M0.7,143.6L203.1,162.5M0,130L196.5,174.4M0.7,116.4L188,185.1M2.8,103L177.9,194.1M6.4,89.8L166.3,201.3M11.2,77.1L153.7,206.4M17.4,65L140.4,209.3M24.8,53.6L126.9,209.9M33.4,43L113.4,208.3M43,33.4L100.4,204.3M53.6,24.8L88.2,198.2M65,17.4L77.3,190.1M77.1,11.2L67.8,180.3M89.8,6.4L60.2,169.1M103,2.8L54.6,156.7M116.4,0.7L51.2,143.5M130,0L50,130M143.6,0.7L51.2,116.5M157,2.8L54.6,103.3M170.2,6.4L60.2,90.9M182.9,11.2L67.8,79.7M195,17.4L77.3,69.9M206.4,24.8L88.2,61.8M217,33.4L100.4,55.7M226.6,43L113.4,51.7M235.2,53.6L126.9,50.1M242.6,65L140.4,50.7M248.8,77.1L153.7,53.6M253.6,89.8L166.3,58.7M257.2,103L177.9,65.9M259.3,116.4L188,74.9M260,130L196.5,85.6M259.3,143.6L203.1,97.5M257.2,157L207.5,110.3M253.6,170.2L209.8,123.7M248.8,182.9L209.7,137.3M242.6,195L207.3,150.7M235.2,206.4L202.7,163.5M226.6,217L195.9,175.3M217,226.6L187.3,185.8M206.4,235.2L177,194.7M195,242.6L165.4,201.7M182.9,248.8L152.7,206.7M170.2,253.6L139.4,209.4M157,257.2L125.8,209.9M143.6,259.3L112.3,208M130,260L99.4,203.9M116.4,259.3L87.3,197.7M103,257.2L76.5,189.5M89.8,253.6L67.2,179.5M77.1,248.8L59.7,168.2M65,242.6L54.2,155.7M53.6,235.2L51,142.5M43,226.6L50,129M33.4,217L51.3,115.4M24.8,206.4L54.9,102.3M17.4,195L60.7,90M11.2,182.9L68.5,78.8M6.4,170.2L78,69.2M2.8,157L89.1,61.2M0.7,143.6L101.3,55.3M0,130L114.4,51.5M0.7,116.4L127.9,50M2.8,103L141.5,50.8M6.4,89.8L154.7,53.9M11.2,77.1L167.2,59.2M17.4,65L178.7,66.5M24.8,53.6L188.7,75.7M33.4,43L197.1,86.4M43,33.4L203.5,98.4M53.6,24.8L207.8,111.3M65,17.4L209.8,124.8M77.1,11.2L209.6,138.4M89.8,6.4L207,151.7M103,2.8L202.2,164.4M116.4,0.7L195.3,176.2M130,0L186.6,186.6M143.6,0.7L176.2,195.3M157,2.8L164.4,202.2M170.2,6.4L151.7,207M182.9,11.2L138.4,209.6M195,17.4L124.8,209.8M206.4,24.8L111.3,207.8M217,33.4L98.4,203.5M226.6,43L86.4,197.1M235.2,53.6L75.7,188.7M242.6,65L66.5,178.7M248.8,77.1L59.2,167.2M253.6,89.8L53.9,154.7M257.2,103L50.8,141.5M259.3,116.4L50,127.9M260,130L51.5,114.4M259.3,143.6L55.3,101.3M257.2,157L61.2,89.1M253.6,170.2L69.2,78M248.8,182.9L78.8,68.5M242.6,195L90,60.7M235.2,206.4L102.3,54.9M226.6,217L115.4,51.3M217,226.6L129,50M206.4,235.2L142.5,51M195,242.6L155.7,54.2M182.9,248.8L168.2,59.7M170.2,253.6L179.5,67.2M157,257.2L189.5,76.5M143.6,259.3L197.7,87.3M130,260L203.9,99.4M116.4,259.3L208,112.3M103,257.2L209.9,125.8M89.8,253.6L209.4,139.4M77.1,248.8L206.7,152.7M65,242.6L201.7,165.4M53.6,235.2L194.7,177M43,226.6L185.8,187.3M33.4,217L175.3,195.9M24.8,206.4L163.5,202.7M17.4,195L150.7,207.3M11.2,182.9L137.3,209.7M6.4,170.2L123.7,209.8M2.8,157L110.3,207.5M0.7,143.6L97.5,203.1M0,130L85.6,196.5M0.7,116.4L74.9,188M2.8,103L65.9,177.9M6.4,89.8L58.7,166.3M11.2,77.1L53.6,153.7M17.4,65L50.7,140.4M24.8,53.6L50.1,126.9M33.4,43L51.7,113.4M43,33.4L55.7,100.4M53.6,24.8L61.8,88.2M65,17.4L69.9,77.3M77.1,11.2L79.7,67.8M89.8,6.4L90.9,60.2M103,2.8L103.3,54.6M116.4,0.7L116.5,51.2M130,0L130,50M143.6,0.7L143.5,51.2M157,2.8L156.7,54.6"/>
    </g>
  </g>
  
  <a xlink:href="http://steamcoded.org" _target="blank">
    <g id="credits" transform="translate(139.75,276.9) scale(0.13)" style="text-anchor:middle;font-size:40px;font-family:Arial;fill:black;stroke:none;">
      <text x="1" y="1" style="font-weight:bold;font-style:italic;fill:#333333;stroke:#333333;stroke-width:0.5px;">STEAM<tspan style="font-variant:small-caps;">coded.org</tspan></text>
      <text x="0" y="0" style="font-weight:bold;font-style:italic;"><tspan style="fill:red;">S</tspan><tspan style="fill:orange;">T</tspan><tspan style="fill:lime;">E</tspan><tspan style="fill:#5555ff;">A</tspan><tspan style="fill:purple;">M</tspan><tspan style="fill:blue;font-variant:small-caps;">coded.org</tspan></text>
    </g>
  </a>

</svg>