<?xml version="1.0" encoding="UTF-8"?>
<svg id="image" width="100%" height="100%" viewBox="0 0 193.5 193.5" xml:space="preserve" xmlns="http://www.w3.org/2000/svg" xmlns:xlink="http://www.w3.org/1999/xlink">
  
  <title>Concentric Circle Symmetry</title>

  <desc>
    Concentric Circle String Art Symmetry
    Connecting circle perimeter line segments
    
    Watch it being drawn at http://goo.gl/Gq8n7j
    parameters: r1=9, r2=8, lines=60
    then change parameters and watch again
    
    by Jay Nick
    August 26, 2015
    
    STEAMcoded.org
  </desc>
  
  <g id="title" transform="translate(96.75,4.5) scale(0.09)" style="text-anchor:middle;font-size:40px;font-family:Arial;fill:black;stroke:none;">
    <text x="0" y="0" style="font-weight:bold;fill:#333333;font-variant:small-caps;"><tspan style="fill:red;">Concentric</tspan><tspan style="fill:orange;"> Circle</tspan><tspan style="fill:green;"> String</tspan><tspan style="fill:navy;"> Art</tspan><tspan style="fill:purple;"> Symmetry</tspan></text>
  </g>

  <g id="art" style="fill:none;stroke:pink;stroke-width:0.5px;" transform="translate(6.75,6.75)">
    <circle id="c1" cx="90" cy="90" r="90" style="fill:rgb(128,0,255);"/>
    <circle id="c2" cx="90" cy="90" r="80" style="fill:rgb(128,0,255);"/>
    <path id="ls" style="stroke-width:0.15px;" d="M90,0L90,10M99.4,0.5L99.4,10.6M108.7,2L108.7,12.2M117.8,4.4L117.7,14.9M126.6,7.8L126.3,18.7M135,12.1L134.4,23.5M142.9,17.2L142,29.2M150.2,23.1L148.7,35.7M156.9,29.8L154.7,43M162.8,37.1L159.8,50.9M167.9,45L163.9,59.4M172.2,53.4L167,68.3M175.6,62.2L169,77.5M178,71.3L169.9,86.9M179.5,80.6L169.8,96.3M180,90L168.5,105.6M179.5,99.4L166.1,114.7M178,108.7L162.7,123.5M175.6,117.8L158.2,131.8M172.2,126.6L152.8,139.5M167.9,135L146.6,146.6M162.8,142.9L139.5,152.8M156.9,150.2L131.8,158.2M150.2,156.9L123.5,162.7M142.9,162.8L114.7,166.1M135,167.9L105.6,168.5M126.6,172.2L96.3,169.8M117.8,175.6L86.9,169.9M108.7,178L77.5,169M99.4,179.5L68.3,167M90,180L59.4,163.9M80.6,179.5L50.9,159.8M71.3,178L43,154.7M62.2,175.6L35.7,148.7M53.4,172.2L29.2,142M45,167.9L23.5,134.4M37.1,162.8L18.7,126.3M29.8,156.9L14.9,117.7M23.1,150.2L12.2,108.7M17.2,142.9L10.6,99.4M12.1,135L10,90M7.8,126.6L10.6,80.6M4.4,117.8L12.2,71.3M2,108.7L14.9,62.3M0.5,99.4L18.7,53.7M0,90L23.5,45.6M0.5,80.6L29.2,38M2,71.3L35.7,31.3M4.4,62.2L43,25.3M7.8,53.4L50.9,20.2M12.1,45L59.4,16.1M17.2,37.1L68.3,13M23.1,29.8L77.5,11M29.8,23.1L86.9,10.1M37.1,17.2L96.3,10.2M45,12.1L105.6,11.5M53.4,7.8L114.7,13.9M62.2,4.4L123.5,17.3M71.3,2L131.8,21.8M80.6,0.5L139.5,27.2M90,0L146.6,33.4M99.4,0.5L152.8,40.5M108.7,2L158.2,48.2M117.8,4.4L162.7,56.5M126.6,7.8L166.1,65.3M135,12.1L168.5,74.4M142.9,17.2L169.8,83.7M150.2,23.1L169.9,93.1M156.9,29.8L169,102.5M162.8,37.1L167,111.7M167.9,45L163.9,120.6M172.2,53.4L159.8,129.1M175.6,62.2L154.7,137M178,71.3L148.7,144.3M179.5,80.6L142,150.8M180,90L134.4,156.5M179.5,99.4L126.3,161.3M178,108.7L117.7,165.1M175.6,117.8L108.7,167.8M172.2,126.6L99.4,169.4M167.9,135L90,170M162.8,142.9L80.6,169.4M156.9,150.2L71.3,167.8M150.2,156.9L62.3,165.1M142.9,162.8L53.7,161.3M135,167.9L45.6,156.5M126.6,172.2L38,150.8M117.8,175.6L31.3,144.3M108.7,178L25.3,137M99.4,179.5L20.2,129.1M90,180L16.1,120.6M80.6,179.5L13,111.7M71.3,178L11,102.5M62.2,175.6L10.1,93.1M53.4,172.2L10.2,83.7M45,167.9L11.5,74.4M37.1,162.8L13.9,65.3M29.8,156.9L17.3,56.5M23.1,150.2L21.8,48.2M17.2,142.9L27.2,40.5M12.1,135L33.4,33.4M7.8,126.6L40.5,27.2M4.4,117.8L48.2,21.8M2,108.7L56.5,17.3M0.5,99.4L65.3,13.9M0,90L74.4,11.5M0.5,80.6L83.7,10.2M2,71.3L93.1,10.1M4.4,62.2L102.5,11M7.8,53.4L111.7,13M12.1,45L120.6,16.1M17.2,37.1L129.1,20.2M23.1,29.8L137,25.3M29.8,23.1L144.3,31.3M37.1,17.2L150.8,38M45,12.1L156.5,45.6M53.4,7.8L161.3,53.7M62.2,4.4L165.1,62.3M71.3,2L167.8,71.3M80.6,0.5L169.4,80.6M90,0L170,90M99.4,0.5L169.4,99.4M108.7,2L167.8,108.7M117.8,4.4L165.1,117.7M126.6,7.8L161.3,126.3M135,12.1L156.5,134.4M142.9,17.2L150.8,142M150.2,23.1L144.3,148.7M156.9,29.8L137,154.7M162.8,37.1L129.1,159.8M167.9,45L120.6,163.9M172.2,53.4L111.7,167M175.6,62.2L102.5,169M178,71.3L93.1,169.9M179.5,80.6L83.7,169.8M180,90L74.4,168.5M179.5,99.4L65.3,166.1M178,108.7L56.5,162.7M175.6,117.8L48.2,158.2M172.2,126.6L40.5,152.8M167.9,135L33.4,146.6M162.8,142.9L27.2,139.5M156.9,150.2L21.8,131.8M150.2,156.9L17.3,123.5M142.9,162.8L13.9,114.7M135,167.9L11.5,105.6M126.6,172.2L10.2,96.3M117.8,175.6L10.1,86.9M108.7,178L11,77.5M99.4,179.5L13,68.3M90,180L16.1,59.4M80.6,179.5L20.2,50.9M71.3,178L25.3,43M62.2,175.6L31.3,35.7M53.4,172.2L38,29.2M45,167.9L45.6,23.5M37.1,162.8L53.7,18.7M29.8,156.9L62.3,14.9M23.1,150.2L71.3,12.2M17.2,142.9L80.6,10.6M12.1,135L90,10M7.8,126.6L99.4,10.6M4.4,117.8L108.7,12.2M2,108.7L117.7,14.9M0.5,99.4L126.3,18.7M0,90L134.4,23.5M0.5,80.6L142,29.2M2,71.3L148.7,35.7M4.4,62.2L154.7,43M7.8,53.4L159.8,50.9M12.1,45L163.9,59.4M17.2,37.1L167,68.3M23.1,29.8L169,77.5M29.8,23.1L169.9,86.9M37.1,17.2L169.8,96.3M45,12.1L168.5,105.6M53.4,7.8L166.1,114.7M62.2,4.4L162.7,123.5M71.3,2L158.2,131.8M80.6,0.5L152.8,139.5M90,0L146.6,146.6M99.4,0.5L139.5,152.8M108.7,2L131.8,158.2M117.8,4.4L123.5,162.7M126.6,7.8L114.7,166.1M135,12.1L105.6,168.5M142.9,17.2L96.3,169.8M150.2,23.1L86.9,169.9M156.9,29.8L77.5,169M162.8,37.1L68.3,167M167.9,45L59.4,163.9M172.2,53.4L50.9,159.8M175.6,62.2L43,154.7M178,71.3L35.7,148.7M179.5,80.6L29.2,142M180,90L23.5,134.4M179.5,99.4L18.7,126.3M178,108.7L14.9,117.7M175.6,117.8L12.2,108.7M172.2,126.6L10.6,99.4M167.9,135L10,90M162.8,142.9L10.6,80.6M156.9,150.2L12.2,71.3M150.2,156.9L14.9,62.3M142.9,162.8L18.7,53.7M135,167.9L23.5,45.6M126.6,172.2L29.2,38M117.8,175.6L35.7,31.3M108.7,178L43,25.3M99.4,179.5L50.9,20.2M90,180L59.4,16.1M80.6,179.5L68.3,13M71.3,178L77.5,11M62.2,175.6L86.9,10.1M53.4,172.2L96.3,10.2M45,167.9L105.6,11.5M37.1,162.8L114.7,13.9M29.8,156.9L123.5,17.3M23.1,150.2L131.8,21.8M17.2,142.9L139.5,27.2M12.1,135L146.6,33.4M7.8,126.6L152.8,40.5M4.4,117.8L158.2,48.2M2,108.7L162.7,56.5M0.5,99.4L166.1,65.3M0,90L168.5,74.4M0.5,80.6L169.8,83.7M2,71.3L169.9,93.1M4.4,62.2L169,102.5M7.8,53.4L167,111.7M12.1,45L163.9,120.6M17.2,37.1L159.8,129.1M23.1,29.8L154.7,137M29.8,23.1L148.7,144.3M37.1,17.2L142,150.8M45,12.1L134.4,156.5M53.4,7.8L126.3,161.3M62.2,4.4L117.7,165.1M71.3,2L108.7,167.8M80.6,0.5L99.4,169.4M90,0L90,170M99.4,0.5L80.6,169.4M108.7,2L71.3,167.8M117.8,4.4L62.3,165.1M126.6,7.8L53.7,161.3M135,12.1L45.6,156.5M142.9,17.2L38,150.8M150.2,23.1L31.3,144.3M156.9,29.8L25.3,137M162.8,37.1L20.2,129.1M167.9,45L16.1,120.6M172.2,53.4L13,111.7M175.6,62.2L11,102.5M178,71.3L10.1,93.1M179.5,80.6L10.2,83.7M180,90L11.5,74.4M179.5,99.4L13.9,65.3M178,108.7L17.3,56.5M175.6,117.8L21.8,48.2M172.2,126.6L27.2,40.5M167.9,135L33.4,33.4M162.8,142.9L40.5,27.2M156.9,150.2L48.2,21.8M150.2,156.9L56.5,17.3M142.9,162.8L65.3,13.9M135,167.9L74.4,11.5M126.6,172.2L83.7,10.2M117.8,175.6L93.1,10.1M108.7,178L102.5,11M99.4,179.5L111.7,13M90,180L120.6,16.1M80.6,179.5L129.1,20.2M71.3,178L137,25.3M62.2,175.6L144.3,31.3M53.4,172.2L150.8,38M45,167.9L156.5,45.6M37.1,162.8L161.3,53.7M29.8,156.9L165.1,62.3M23.1,150.2L167.8,71.3M17.2,142.9L169.4,80.6M12.1,135L170,90M7.8,126.6L169.4,99.4M4.4,117.8L167.8,108.7M2,108.7L165.1,117.7M0.5,99.4L161.3,126.3M0,90L156.5,134.4M0.5,80.6L150.8,142M2,71.3L144.3,148.7M4.4,62.2L137,154.7M7.8,53.4L129.1,159.8M12.1,45L120.6,163.9M17.2,37.1L111.7,167M23.1,29.8L102.5,169M29.8,23.1L93.1,169.9M37.1,17.2L83.7,169.8M45,12.1L74.4,168.5M53.4,7.8L65.3,166.1M62.2,4.4L56.5,162.7M71.3,2L48.2,158.2M80.6,0.5L40.5,152.8M90,0L33.4,146.6M99.4,0.5L27.2,139.5M108.7,2L21.8,131.8M117.8,4.4L17.3,123.5M126.6,7.8L13.9,114.7M135,12.1L11.5,105.6M142.9,17.2L10.2,96.3M150.2,23.1L10.1,86.9M156.9,29.8L11,77.5M162.8,37.1L13,68.3M167.9,45L16.1,59.4M172.2,53.4L20.2,50.9M175.6,62.2L25.3,43M178,71.3L31.3,35.7M179.5,80.6L38,29.2M180,90L45.6,23.5M179.5,99.4L53.7,18.7M178,108.7L62.3,14.9M175.6,117.8L71.3,12.2M172.2,126.6L80.6,10.6M167.9,135L90,10M162.8,142.9L99.4,10.6M156.9,150.2L108.7,12.2M150.2,156.9L117.7,14.9M142.9,162.8L126.3,18.7M135,167.9L134.4,23.5M126.6,172.2L142,29.2M117.8,175.6L148.7,35.7M108.7,178L154.7,43M99.4,179.5L159.8,50.9M90,180L163.9,59.4M80.6,179.5L167,68.3M71.3,178L169,77.5M62.2,175.6L169.9,86.9M53.4,172.2L169.8,96.3M45,167.9L168.5,105.6M37.1,162.8L166.1,114.7M29.8,156.9L162.7,123.5M23.1,150.2L158.2,131.8M17.2,142.9L152.8,139.5M12.1,135L146.6,146.6M7.8,126.6L139.5,152.8M4.4,117.8L131.8,158.2M2,108.7L123.5,162.7M0.5,99.4L114.7,166.1M0,90L105.6,168.5M0.5,80.6L96.3,169.8M2,71.3L86.9,169.9M4.4,62.2L77.5,169M7.8,53.4L68.3,167M12.1,45L59.4,163.9M17.2,37.1L50.9,159.8M23.1,29.8L43,154.7M29.8,23.1L35.7,148.7M37.1,17.2L29.2,142M45,12.1L23.5,134.4M53.4,7.8L18.7,126.3M62.2,4.4L14.9,117.7M71.3,2L12.2,108.7M80.6,0.5L10.6,99.4M90,0L10,90M99.4,0.5L10.6,80.6M108.7,2L12.2,71.3M117.8,4.4L14.9,62.3M126.6,7.8L18.7,53.7M135,12.1L23.5,45.6M142.9,17.2L29.2,38M150.2,23.1L35.7,31.3M156.9,29.8L43,25.3M162.8,37.1L50.9,20.2M167.9,45L59.4,16.1M172.2,53.4L68.3,13M175.6,62.2L77.5,11M178,71.3L86.9,10.1M179.5,80.6L96.3,10.2M180,90L105.6,11.5M179.5,99.4L114.7,13.9M178,108.7L123.5,17.3M175.6,117.8L131.8,21.8M172.2,126.6L139.5,27.2M167.9,135L146.6,33.4M162.8,142.9L152.8,40.5M156.9,150.2L158.2,48.2M150.2,156.9L162.7,56.5M142.9,162.8L166.1,65.3M135,167.9L168.5,74.4M126.6,172.2L169.8,83.7M117.8,175.6L169.9,93.1M108.7,178L169,102.5M99.4,179.5L167,111.7M90,180L163.9,120.6M80.6,179.5L159.8,129.1M71.3,178L154.7,137M62.2,175.6L148.7,144.3M53.4,172.2L142,150.8M45,167.9L134.4,156.5M37.1,162.8L126.3,161.3M29.8,156.9L117.7,165.1M23.1,150.2L108.7,167.8M17.2,142.9L99.4,169.4M12.1,135L90,170M7.8,126.6L80.6,169.4M4.4,117.8L71.3,167.8M2,108.7L62.3,165.1M0.5,99.4L53.7,161.3M0,90L45.6,156.5M0.5,80.6L38,150.8M2,71.3L31.3,144.3M4.4,62.2L25.3,137M7.8,53.4L20.2,129.1M12.1,45L16.1,120.6M17.2,37.1L13,111.7M23.1,29.8L11,102.5M29.8,23.1L10.1,93.1M37.1,17.2L10.2,83.7M45,12.1L11.5,74.4M53.4,7.8L13.9,65.3M62.2,4.4L17.3,56.5M71.3,2L21.8,48.2M80.6,0.5L27.2,40.5M90,0L33.4,33.4M99.4,0.5L40.5,27.2M108.7,2L48.2,21.8M117.8,4.4L56.5,17.3M126.6,7.8L65.3,13.9M135,12.1L74.4,11.5M142.9,17.2L83.7,10.2M150.2,23.1L93.1,10.1M156.9,29.8L102.5,11M162.8,37.1L111.7,13M167.9,45L120.6,16.1M172.2,53.4L129.1,20.2M175.6,62.2L137,25.3M178,71.3L144.3,31.3M179.5,80.6L150.8,38M180,90L156.5,45.6M179.5,99.4L161.3,53.7M178,108.7L165.1,62.3M175.6,117.8L167.8,71.3M172.2,126.6L169.4,80.6M167.9,135L170,90M162.8,142.9L169.4,99.4M156.9,150.2L167.8,108.7M150.2,156.9L165.1,117.7M142.9,162.8L161.3,126.3M135,167.9L156.5,134.4M126.6,172.2L150.8,142M117.8,175.6L144.3,148.7M108.7,178L137,154.7M99.4,179.5L129.1,159.8M90,180L120.6,163.9M80.6,179.5L111.7,167M71.3,178L102.5,169M62.2,175.6L93.1,169.9M53.4,172.2L83.7,169.8M45,167.9L74.4,168.5M37.1,162.8L65.3,166.1M29.8,156.9L56.5,162.7M23.1,150.2L48.2,158.2M17.2,142.9L40.5,152.8M12.1,135L33.4,146.6M7.8,126.6L27.2,139.5M4.4,117.8L21.8,131.8M2,108.7L17.3,123.5M0.5,99.4L13.9,114.7M0,90L11.5,105.6M0.5,80.6L10.2,96.3M2,71.3L10.1,86.9M4.4,62.2L11,77.5M7.8,53.4L13,68.3M12.1,45L16.1,59.4M17.2,37.1L20.2,50.9M23.1,29.8L25.3,43M29.8,23.1L31.3,35.7M37.1,17.2L38,29.2M45,12.1L45.6,23.5M53.4,7.8L53.7,18.7M62.2,4.4L62.3,14.9M71.3,2L71.3,12.2M80.6,0.5L80.6,10.6M90,0L90,10M99.4,0.5L99.4,10.6M108.7,2L108.7,12.2"/>
  </g>
    
  <a xlink:href="http://steamcoded.org" _target="blank">
    <g id="credits" transform="translate(96.75,191.7) scale(0.09)" style="text-anchor:middle;font-size:40px;font-family:Arial;fill:black;stroke:none;">
      <text x="1" y="1" style="font-weight:bold;font-style:italic;fill:#333333;stroke:#333333;stroke-width:0.5px;">STEAM<tspan style="font-variant:small-caps;">coded.org</tspan></text>
      <text x="0" y="0" style="font-weight:bold;font-style:italic;"><tspan style="fill:red;">S</tspan><tspan style="fill:orange;">T</tspan><tspan style="fill:lime;">E</tspan><tspan style="fill:#5555ff;">A</tspan><tspan style="fill:purple;">M</tspan><tspan style="fill:blue;font-variant:small-caps;">coded.org</tspan></text>
    </g>
  </a>

</svg>