<svg width="100%" height="100%" viewBox="0 0 806.4 806.4"
    xmlns="http://www.w3.org/2000/svg"
    xmlns:xlink="http://www.w3.org/1999/xlink">

  <desc><![CDATA[
    Archimedean Dual Spiral 2
    Made from http://steamcoded.org/images/spiralmaker.svg?spirals=1,2&repeat=60&segments=32
    
    Radius of the Archimedean spiral changes as a linear function of the rotation angle.
    
    Thanks to Vincent Tan, PolymathProgrammer.com, for his post on Reverse Engineering Bezier Curves
    which helped me with the math required to create the Bezier curves in the spiral.
    
    Jay Nick
    STEAMcoded.org
  ]]>
  </desc>

  <defs>
    <radialGradient id="rg1" cx="0.467" cy="0.464" r="50%">
      <stop offset="5%" style="stop-color:violet;"/>
      <stop offset="15%" style="stop-color:indigo;"/>
      <stop offset="30%" style="stop-color:blue;"/>
      <stop offset="40%" style="stop-color:lime;"/>
      <stop offset="75%" style="stop-color:yellow;"/>
      <stop offset="90%" style="stop-color:orange;"/>
      <stop offset="100%" style="stop-color:red;"/>
    </radialGradient>
    <radialGradient id="rg2" cx="0.533" cy="0.464" r="50%">
      <stop offset="5%" style="stop-color:violet;"/>
      <stop offset="15%" style="stop-color:indigo;"/>
      <stop offset="30%" style="stop-color:blue;"/>
      <stop offset="40%" style="stop-color:lime;"/>
      <stop offset="75%" style="stop-color:yellow;"/>
      <stop offset="90%" style="stop-color:orange;"/>
      <stop offset="100%" style="stop-color:red;"/>
    </radialGradient>
  </defs>
  
  <g id="spirals" transform="translate(403.2,403.2) rotate(0)" style="fill:none;stroke-width:2px;stroke-linecap:round;">
    <path id="spiral1" style="stroke:url(#rg1);" d="M0,0C4.03,0.03,7.91,-3.35,8.49,-8.49C9.14,-13.55,6.39,-19.98,0,-24C-6.24,-28.08,-15.92,-29.34,-25.46,-25.46C-34.97,-21.71,-44.01,-12.66,-48,0C-52.09,12.53,-50.79,28.45,-42.43,42.43C-34.24,56.4,-18.95,68.06,0,72C18.81,76.12,40.99,72.21,59.4,59.4C77.8,46.78,92.12,25.23,96,0C100.12,-25.09,93.69,-53.54,76.37,-76.37C59.32,-99.26,31.52,-116.13,0,-120C-31.38,-124.16,-66.08,-115.11,-93.34,-93.34C-120.71,-71.87,-140.14,-37.8,-144,0C-148.2,37.68,-136.55,78.63,-110.31,110.31C-84.42,142.13,-44.1,164.17,0,168C43.99,172.22,91.16,157.99,127.28,127.28C163.6,96.94,188.18,50.42,192,0C196.23,-50.28,179.45,-103.7,144.25,-144.25C109.49,-185.01,56.7,-212.24,0,-216C-56.57,-220.26,-116.23,-200.86,-161.22,-161.22C-206.46,-122.03,-236.25,-62.98,-240,0C-244.32,62.85,-222.27,128.78,-178.19,178.19C-134.57,227.91,-69.27,260.26,0,264C69.13,268.32,141.32,243.75,195.16,195.16C249.36,147.1,284.28,75.56,288,0C292.35,-75.44,265.17,-153.87,212.13,-212.13C159.66,-270.77,81.85,-308.34,0,-312C-81.72,-316.37,-166.41,-286.62,-229.1,-229.1C-292.21,-172.2,-332.36,-88.14,-336,0C-340.38,88.04,-308.07,178.93,-246.07,246.07C-184.73,313.66,-94.45,356.37,0,360C94.32,364.43,191.48,329.5,263.04,263.04C335.11,197.26,380.39,100.74,384,0"/>
    <path id="spiral2" style="stroke:url(#rg2);" d="M0,0C-4.04,0.03,-7.9,-3.35,-8.49,-8.49C-9.14,-13.55,-6.39,-19.98,0,-24C6.24,-28.08,15.92,-29.34,25.46,-25.46C34.97,-21.71,44.01,-12.66,48,0C52.1,12.53,50.79,28.45,42.43,42.43C34.24,56.4,18.95,68.06,0,72C-18.81,76.12,-40.99,72.21,-59.4,59.4C-77.81,46.78,-92.11,25.23,-96,0C-100.12,-25.09,-93.69,-53.54,-76.37,-76.37C-59.32,-99.26,-31.52,-116.13,0,-120C31.38,-124.16,66.08,-115.11,93.34,-93.34C120.71,-71.87,140.14,-37.8,144,0C148.2,37.68,136.55,78.63,110.31,110.31C84.42,142.13,44.1,164.17,0,168C-44,172.22,-91.15,157.99,-127.28,127.28C-163.61,96.94,-188.17,50.42,-192,0C-196.23,-50.28,-179.44,-103.7,-144.25,-144.25C-109.49,-185.01,-56.7,-212.24,0,-216C56.56,-220.26,116.24,-200.86,161.22,-161.22C206.46,-122.03,236.25,-62.98,240,0C244.32,62.85,222.27,128.78,178.19,178.19C134.57,227.91,69.27,260.26,0,264C-69.14,268.32,-141.31,243.75,-195.16,195.16C-249.36,147.1,-284.28,75.56,-288,0C-292.35,-75.44,-265.17,-153.87,-212.13,-212.13C-159.66,-270.77,-81.85,-308.34,0,-312C81.72,-316.37,166.41,-286.62,229.1,-229.1C292.21,-172.2,332.36,-88.14,336,0C340.38,88.04,308.07,178.93,246.07,246.07C184.73,313.66,94.45,356.37,0,360C-94.32,364.43,-191.48,329.5,-263.04,263.04C-335.11,197.26,-380.39,100.74,-384,0"/>
    
    <g id="spirals1">
      <use xlink:href="#spiral1" transform="rotate(60)"/>
      <use xlink:href="#spiral1" transform="rotate(120)"/>
      <use xlink:href="#spiral1" transform="rotate(180)"/>
      <use xlink:href="#spiral1" transform="rotate(240)"/>
      <use xlink:href="#spiral1" transform="rotate(300)"/>
    </g>
    <g id="spirals2">
      <use xlink:href="#spiral2" transform="rotate(60)"/>
      <use xlink:href="#spiral2" transform="rotate(120)"/>
      <use xlink:href="#spiral2" transform="rotate(180)"/>
      <use xlink:href="#spiral2" transform="rotate(240)"/>
      <use xlink:href="#spiral2" transform="rotate(300)"/>
    </g>
  </g>
  
</svg>